<?xml version="1.0" encoding="utf-8"?>
<!-- Generator: Adobe Illustrator 26.0.0, SVG Export Plug-In . SVG Version: 6.00 Build 0)  -->
<svg version="1.1" id="Capa_1" xmlns="http://www.w3.org/2000/svg" xmlns:xlink="http://www.w3.org/1999/xlink" x="0px" y="0px"
	 viewBox="0 0 512 512" style="enable-background:new 0 0 512 512;" xml:space="preserve">
<style type="text/css">
	.st0{fill:#F2362F;}
	.st1{fill:#FEFEFE;}
	.st2{fill:#FEDA00;}
</style>
<g>
	<g>
		<path class="st0" d="M26.5,281.8c0-6.6,0-13.3,0-19.9c0.7-0.3,0.4-1,0.4-1.5c1.2-20.7,5.1-40.9,12-60.5
			c16.4-46.4,44.6-83.9,84.4-112.7c29.8-21.6,62.9-35.1,99.3-40.6c20.4-3,40.8-3.2,61.3-0.6c20.7,2.6,40.6,7.9,59.7,16.2
			c53.2,23.3,92.7,61.1,118.4,113.1c12.7,25.6,19.9,52.8,21.9,81.3c1.5,20.3,0.1,40.5-4.1,60.5c-0.4,2-1.2,3.4-2.8,4.6
			c-3.4,2.5-6.8,5.2-10.2,7.7c-18.5,13.6-37.2,26.9-55.9,40.1c-0.9,0.6-1.7,1.1-1.8,2.4c-0.3,3.4-0.8,6.7-1.2,10.1
			c-2.9,24.4-5.8,48.9-8.6,73.3c-0.2,1.5-0.7,1.9-2.1,1.9c-8.4-0.1-16.9-0.1-25.3,0c-29.8,0-59.5-0.2-89.3,0.2
			c-1.4,0-2.4,0.3-3.4,1.3c-12.4,12.3-33.9,12.6-46.5,0.5c-1.4-1.4-2.9-1.9-4.8-1.9c-29.5-0.3-59.1-0.2-88.6-0.2
			c-8.4,0-16.9,0-25.3,0c-1.2,0-1.8-0.3-2-1.6c-1.6-13.7-3.2-27.4-4.8-41.1c-1.6-14-3.3-27.9-4.9-41.9c-0.2-1.5-0.8-2.4-2.1-3.3
			c-13.4-9.5-26.7-19-40-28.5c-8.7-6.3-17.4-12.6-25.9-19.2c-1.3-1-2.4-2-2.8-3.9c-1.9-9.6-3.3-19.2-4.1-28.9
			C27.1,286.5,27.4,284.1,26.5,281.8z M318.4,353c-0.1-0.1-0.1-0.1-0.2-0.2c0.5-0.7,1-1.4,1.5-2.1c37.1-45.4,74.2-90.8,111.3-136.2
			c2.2-2.7,2.6-5.1,1.5-8.1c-0.2-0.6-0.4-1.2-0.6-1.9c-4.2-11.5-10.2-22-17.3-31.9c-2.6-3.7-5.4-7.3-9-10.2c-2.3-1.8-2.5-1.8-4,0.8
			c-9.8,17-19.6,34-29.4,51c-23.6,40.9-47.2,81.8-70.8,122.7c-0.5,0.9-0.9,2.1-2.3,3c0.4-0.9,0.6-1.3,0.8-1.8
			c30-64,60-127.9,90.1-191.8c1.2-2.5,1-4.3-0.7-6.2c-0.3-0.4-0.6-0.8-0.9-1.2c-8.6-9.9-18.8-17.6-30.2-24
			c-4.3-2.4-8.8-4.3-13.7-5.2c-1.9-0.3-2.8,0.1-3.4,2.1c-18.7,65.9-37.6,131.8-56.4,197.7c-2.3,8.2-4.7,16.4-7,24.6
			c-0.2-0.3-0.2-0.5-0.1-0.7c4.8-24,9.7-48.1,14.5-72.1c10.5-52.3,21-104.7,31.5-157c1-4.8,1.1-4.9-3.4-7.3
			c-16.4-8.7-34-11.6-52.4-10.3c-1.8,0.1-2.5,0.8-2.5,2.7c-0.1,6.4-0.4,12.8-0.6,19.3c-0.8,20.5-1.6,41-2.4,61.5
			c-0.6,16.4-1.3,32.9-1.9,49.3c-0.8,20.4-1.6,40.8-2.4,61.2c-0.6,15.1-1.2,30.2-1.8,45.2c0,0.4,0.3,1.1-0.6,1.1
			c-0.1-0.4-0.2-0.8-0.2-1.3c-0.4-10.5-0.9-21.1-1.3-31.6c-0.8-20-1.5-40-2.3-60c-1.1-27.1-2.2-54.1-3.3-81.2
			c-0.9-21.3-1.7-42.6-2.5-63.8c-0.1-1.7-0.5-2.4-2.3-2.6c-9-1-17.9-0.2-26.7,1.4c-10.1,1.9-19.8,4.8-28.4,10.5
			c-1.2,0.8-1.5,1.5-1.2,3c5.2,25.7,10.3,51.3,15.5,77c9.9,49.4,19.8,98.7,29.7,148.1c0.2,1,0.7,1.9,0.2,3.4c-0.3-1-0.5-1.6-0.7-2.2
			c-20.2-70.8-40.4-141.6-60.6-212.5c-1.9-6.7-2-6.8-8.7-4.6c-7.8,2.5-14.6,6.9-21.2,11.7c-7,5.1-13.7,10.7-19.1,17.5
			c-1.6,2-2.1,3.7-0.9,6.4c27.2,57.6,54.2,115.3,81.3,173c3.1,6.6,6.1,13.2,9.2,19.8c-0.1,0.1-0.2,0.1-0.3,0.2
			c-0.4-0.5-0.8-1-1.1-1.6c-26.1-45.2-52.1-90.4-78.2-135.6c-7.6-13.1-15.2-26.2-22.7-39.4c-1-1.8-1.9-1.8-3.3-0.7
			c-1.7,1.3-3.3,2.8-4.7,4.5c-5.6,6.4-10.1,13.6-14.1,21c-3.6,6.5-7,13.1-8.9,20.4c-0.6,2.2-0.2,3.9,1.3,5.8
			c31.9,38.9,63.7,77.9,95.5,116.9c5.5,6.8,11,13.6,16.5,20.4c-0.1,0.2-0.2,0.3-0.3,0.5c-0.7-0.7-1.5-1.4-2.2-2.1
			c-22.2-22.5-44.4-45.1-66.6-67.6c-15.3-15.6-30.7-31.2-46-46.8c-1.3-1.4-1.9-1.2-2.7,0.4c-1.4,2.9-2.7,5.8-3.6,8.8
			c-5.8,17.6-5.3,35.4-1.1,53.2c0.2,1,0.7,1.7,1.5,2.2c2.4,1.6,4.7,3.4,7,5.1c19.7,14.2,39.4,28.5,59.2,42.7
			c1.1,0.8,1.7,1.6,1.9,3.1c2.6,21.1,5.4,42.2,8.1,63.3c0.4,2.9,0.4,2.9,3.4,2.9c26.4,0,52.7,0,79.1,0c1.8,0,3.1,0.5,4.5,1.7
			c4.2,3.7,8.8,6.9,13.9,9.5c5.2,2.6,10.3,2.6,15.6,0.1c4.9-2.4,9.4-5.4,13.5-9c1.8-1.6,3.6-2.2,6-2.2c26.2,0.1,52.4,0,78.7,0.1
			c2.1,0,2.8-0.6,3-2.6c0.2-3,0.7-6,1.1-9c2.1-16.7,4.4-33.5,6.3-50.3c0.5-4.4,2-7.3,5.8-10c20.9-14.8,41.6-29.9,62.4-44.9
			c1.3-0.9,2.1-2,2.4-3.6c1.8-8.3,2.9-16.6,2.9-25.1c-0.1-12.5-2.2-24.5-7.8-35.8c-0.8-1.7-1.4-1.9-2.8-0.5
			c-33.5,34.1-67,68.2-100.6,102.2C328.9,342.5,323.9,348,318.4,353z"/>
		<path class="st1" d="M26.5,281.8c0.9,2.3,0.6,4.8,0.8,7.1c0.8,9.7,2.2,19.3,4.1,28.9c0.4,1.8,1.4,2.9,2.8,3.9
			c8.5,6.6,17.2,12.9,25.9,19.2c13.3,9.5,26.7,19,40,28.5c1.2,0.9,1.9,1.8,2.1,3.3c1.6,14,3.3,27.9,4.9,41.9
			c1.6,13.7,3.2,27.4,4.8,41.1c0.2,1.3,0.8,1.6,2,1.6c8.4-0.1,16.9,0,25.3,0c29.5,0,59.1-0.1,88.6,0.2c1.9,0,3.3,0.5,4.8,1.9
			c12.7,12,34.2,11.8,46.5-0.5c1-1,2.1-1.3,3.4-1.3c29.8-0.4,59.5-0.2,89.3-0.2c8.4,0,16.9,0,25.3,0c1.4,0,1.9-0.3,2.1-1.9
			c2.8-24.4,5.7-48.9,8.6-73.3c0.4-3.4,0.9-6.7,1.2-10.1c0.1-1.3,1-1.8,1.8-2.4c18.7-13.2,37.4-26.5,55.9-40.1
			c3.4-2.5,6.8-5.2,10.2-7.7c1.6-1.2,2.4-2.6,2.8-4.6c4.1-20,5.6-40.2,4.1-60.5c-2.1-28.5-9.3-55.7-21.9-81.3
			c-25.7-52-65.2-89.8-118.4-113.1c-19.1-8.3-39-13.6-59.7-16.2c-20.5-2.6-40.9-2.5-61.3,0.6c-36.4,5.4-69.6,19-99.3,40.6
			c-39.8,28.8-68,66.3-84.4,112.7c-6.9,19.6-10.8,39.8-12,60.5c0,0.5,0.3,1.2-0.4,1.5c0-72.1,0-144.3,0-216.4c0-1.6,0.3-2,2-2
			c151.7,0,303.3,0,455,0c1.8,0,2.1,0.4,2.1,2.1c0,140.3,0,280.6,0,420.9c0,1.7-0.3,2.1-2.1,2.1c-151.6-0.1-303.2-0.1-454.7,0
			c-1.9,0-2.2-0.5-2.2-2.2C26.6,404.8,26.5,343.3,26.5,281.8z"/>
		<path class="st2" d="M191.8,351c-5.5-6.8-10.9-13.6-16.5-20.4c-31.8-39-63.7-78-95.5-116.9c-1.5-1.8-1.9-3.6-1.3-5.8
			c1.9-7.3,5.3-13.9,8.9-20.4c4.1-7.4,8.6-14.5,14.1-21c1.4-1.6,3-3.1,4.7-4.5c1.5-1.1,2.3-1.1,3.3,0.7
			c7.5,13.2,15.1,26.3,22.7,39.4c26.1,45.2,52.1,90.4,78.2,135.6c0.3,0.6,0.7,1.1,1.1,1.6c0.1,0.3,0.1,0.7,0.5,0.8
			c0.1,0.1,0,0.5,0.3,0.2c-0.1,0-0.2-0.1-0.3-0.1c0.1-0.4,0-0.7-0.2-1c-3.1-6.6-6.1-13.2-9.2-19.8c-27.1-57.7-54.1-115.4-81.3-173
			c-1.3-2.7-0.7-4.4,0.9-6.4c5.5-6.8,12.1-12.4,19.1-17.5c6.6-4.7,13.4-9.1,21.2-11.7c6.7-2.2,6.8-2.1,8.7,4.6
			c20.2,70.8,40.4,141.6,60.6,212.5c0.2,0.6,0.4,1.2,0.7,2.2c0.5-1.5,0-2.4-0.2-3.4c-9.9-49.4-19.8-98.7-29.7-148.1
			c-5.1-25.7-10.3-51.4-15.5-77c-0.3-1.5,0.1-2.2,1.2-3c8.7-5.7,18.4-8.6,28.4-10.5c8.8-1.6,17.7-2.4,26.7-1.4
			c1.8,0.2,2.2,0.9,2.3,2.6c0.8,21.3,1.7,42.6,2.5,63.8c1.1,27.1,2.2,54.1,3.3,81.2c0.8,20,1.5,40,2.3,60
			c0.4,10.5,0.8,21.1,1.3,31.6c0,0.4,0.1,0.8,0.2,1.3c0.9-0.1,0.6-0.7,0.6-1.1c0.6-15.1,1.2-30.2,1.8-45.2
			c0.8-20.4,1.6-40.8,2.4-61.2c0.6-16.4,1.3-32.9,1.9-49.3c0.8-20.5,1.6-41,2.4-61.5c0.3-6.4,0.5-12.8,0.6-19.3
			c0-1.8,0.6-2.5,2.5-2.7c18.4-1.3,36,1.6,52.4,10.3c4.5,2.4,4.4,2.5,3.4,7.3c-10.5,52.3-21,104.7-31.5,157
			c-4.8,24-9.7,48.1-14.5,72.1c0,0.2,0,0.4,0.1,0.7c2.3-8.2,4.7-16.4,7-24.6c18.8-65.9,37.6-131.8,56.4-197.7c0.6-2,1.5-2.4,3.4-2.1
			c4.9,0.9,9.4,2.8,13.7,5.2c11.3,6.4,21.6,14.1,30.2,24c0.3,0.4,0.6,0.8,0.9,1.2c1.7,1.9,1.9,3.8,0.7,6.2
			C360,210.4,330,274.3,300,338.3c-0.2,0.4-0.4,0.9-0.8,1.8c1.4-1,1.7-2.1,2.3-3c23.6-40.9,47.2-81.8,70.8-122.7
			c9.8-17,19.6-34,29.4-51c1.5-2.6,1.7-2.6,4-0.8c3.6,2.8,6.4,6.5,9,10.2c7,9.9,13,20.4,17.3,31.9c0.2,0.6,0.4,1.2,0.6,1.9
			c1,3,0.6,5.4-1.5,8.1c-37.2,45.3-74.2,90.8-111.3,136.2c-0.5,0.7-1,1.4-1.5,2.1c-0.1,0.1-0.2,0.2-0.2,0.2c0.2,0.2,0.3,0.1,0.4-0.1
			c5.5-5,10.5-10.5,15.7-15.8c33.6-34.1,67.1-68.1,100.6-102.2c1.4-1.5,2-1.2,2.8,0.5c5.6,11.3,7.8,23.3,7.8,35.8
			c0,8.5-1,16.8-2.9,25.1c-0.4,1.6-1.1,2.7-2.4,3.6c-20.8,15-41.5,30.1-62.4,44.9c-3.7,2.6-5.3,5.6-5.8,10
			c-1.9,16.8-4.2,33.5-6.3,50.3c-0.4,3-0.8,6-1.1,9c-0.2,2-0.9,2.6-3,2.6c-26.2-0.1-52.4,0-78.7-0.1c-2.4,0-4.2,0.6-6,2.2
			c-4.1,3.6-8.5,6.6-13.5,9c-5.2,2.6-10.4,2.5-15.6-0.1c-5.1-2.5-9.7-5.7-13.9-9.5c-1.3-1.2-2.7-1.7-4.5-1.7c-26.4,0-52.7,0-79.1,0
			c-3.1,0-3,0-3.4-2.9c-2.7-21.1-5.4-42.2-8.1-63.3c-0.2-1.5-0.8-2.3-1.9-3.1c-19.7-14.2-39.5-28.5-59.2-42.7
			c-2.3-1.7-4.7-3.4-7-5.1c-0.8-0.6-1.3-1.3-1.5-2.2c-4.2-17.8-4.7-35.6,1.1-53.2c1-3,2.3-5.9,3.6-8.8c0.8-1.6,1.4-1.8,2.7-0.4
			c15.3,15.6,30.7,31.2,46,46.8c22.2,22.5,44.4,45.1,66.6,67.6c0.7,0.7,1.5,1.4,2.2,2.1c0.2,0,0.4,0.1,0.5,0.1
			C191.9,351.3,191.8,351.2,191.8,351z M317.3,354.1c0,0,0.1-0.1,0.1-0.1c0,0,0-0.1,0-0.1C317.4,354,317.4,354.1,317.3,354.1
			c0,0.1-0.1,0.1-0.2,0.1c0,0,0.1,0,0.1,0C317.3,354.2,317.3,354.2,317.3,354.1z M193.4,353.3c0.1,0.1,0.1,0.4,0.3,0.1
			C193.6,353.4,193.5,353.3,193.4,353.3c-0.1-0.2-0.1-0.4-0.2-0.6c-0.1-0.2-0.2-0.3-0.4-0.5c-0.2-0.1-0.3-0.1-0.5-0.2
			c0.1,0.2,0.1,0.3,0.2,0.5c0.1,0.1,0.3,0.3,0.4,0.4C193.1,353,193.2,353.1,193.4,353.3z M212.8,341.5c0,0-0.1-0.1-0.1-0.1
			c0,0.1-0.1,0.2-0.1,0.3c0,0,0.1,0.1,0.1,0.1C212.7,341.7,212.7,341.6,212.8,341.5z"/>
		<path class="st0" d="M211.7,339.3c0.3,0.3,0.4,0.6,0.2,1l0,0c-0.4-0.1-0.5-0.4-0.5-0.8C211.6,339.4,211.7,339.3,211.7,339.3z"/>
		<path class="st0" d="M212.8,341.5c0,0.1-0.1,0.2-0.1,0.3c0,0-0.1-0.1-0.1-0.1c0-0.1,0.1-0.2,0.1-0.3
			C212.7,341.4,212.8,341.4,212.8,341.5z"/>
		<path class="st0" d="M212,340.3c0.1,0,0.2,0.1,0.3,0.1C212,340.8,212.1,340.4,212,340.3C212,340.3,212,340.3,212,340.3z"/>
		<path class="st0" d="M191.8,351c0.1,0.2,0.1,0.4,0.2,0.5c-0.2,0-0.4-0.1-0.5-0.1C191.5,351.3,191.7,351.1,191.8,351z"/>
		<path class="st0" d="M192.5,352.5c-0.1-0.2-0.1-0.3-0.2-0.5c0.2,0.1,0.3,0.1,0.5,0.2C192.7,352.3,192.6,352.3,192.5,352.5z"/>
		<path class="st0" d="M192.9,352.9c-0.1-0.1-0.3-0.3-0.4-0.4c0.1-0.1,0.2-0.2,0.3-0.3c0.1,0.2,0.2,0.3,0.4,0.5
			C193.1,352.7,193,352.8,192.9,352.9z"/>
		<path class="st0" d="M193.4,353.3c-0.2-0.1-0.3-0.3-0.5-0.4c0.1-0.1,0.1-0.2,0.2-0.2C193.2,352.8,193.3,353,193.4,353.3
			L193.4,353.3z"/>
		<path class="st0" d="M318.4,353c-0.1,0.1-0.3,0.3-0.4,0.1c0,0,0.1-0.2,0.2-0.2C318.2,352.9,318.3,353,318.4,353z"/>
		<path class="st0" d="M193.4,353.3c0.1,0.1,0.2,0.1,0.3,0.2C193.4,353.7,193.4,353.4,193.4,353.3
			C193.4,353.3,193.4,353.3,193.4,353.3z"/>
		<path class="st0" d="M317.4,354.2c0-0.1,0.1-0.2,0.1-0.2c0,0,0,0.1,0,0.1C317.4,354.1,317.4,354.1,317.4,354.2L317.4,354.2z"/>
		<path class="st0" d="M317.3,354.1c0,0-0.1,0.1-0.1,0.1c0,0-0.1,0-0.1,0C317.2,354.2,317.3,354.2,317.3,354.1
			C317.4,354.2,317.3,354.1,317.3,354.1z"/>
	</g>
</g>
</svg>
