<?xml version="1.0" encoding="utf-8"?>
<!-- Generator: Adobe Illustrator 26.2.1, SVG Export Plug-In . SVG Version: 6.00 Build 0)  -->
<svg version="1.1" id="Capa_1" xmlns="http://www.w3.org/2000/svg" xmlns:xlink="http://www.w3.org/1999/xlink" x="0px" y="0px"
	 viewBox="0 0 512 512" style="enable-background:new 0 0 512 512;" xml:space="preserve">
<g>
	<path d="M335.2,231.7c-8.4,1.4-18.8-1.3-24.2-7.8c-8.1,10.4-23.6,11.3-32.6,0.1c-8.7,10.9-24.1,10.7-32.6-0.1
		c-5.3,6.5-15.3,9.1-23.6,7.8c0,0.3-0.1,0.4-0.1,0.6c0,13.3-0.1,30.3,0,43.6c0,6,5.4,11.5,11.4,11.6c6.9,0.1,16.8,0.1,23.7,0.1
		c0.2,0,0.5-0.1,0.9-0.2v-1.9c0-8.6,0-20.8,0-29.3c0-3.6,1.4-5,5-5c10.2,0,20.4,0,30.6,0c3.6,0,5,1.4,5,5c0,8.6,0,20.8,0,29.3v1.8
		c0.5,0.1,0.9,0.1,1.2,0.1c6.4,0,12.9,0,19.3,0c0.8,0,5.3,0,6.1-0.2c6-1.2,10-6.2,10.1-12.3c0-12.8,0-29.2,0-42
		C335.3,232.6,335.2,232.2,335.2,231.7z"/>
	<path d="M343.9,215.2c-1.8-10.8-3.7-26-5.4-36.8c-1.2-7.8-7.3-16.1-13.2-16c-14.1,0.2-32.6,0.1-46.8,0.1c-14.2,0-28.3,0-42.5,0
		c-1.1,0-2.3,0-3.3,0.2c-5.7,1.3-12.5,6.4-13.5,12.4c-1.5,9.5-3.3,23.5-4.8,33c-0.4,2.6-1,5.3-0.5,7.8c1.1,5.5,9.9,12.9,15.6,12.8
		c5.6,0,10.5-3.9,11.9-9.4c0.3-1.1,0.3-2.3,0.5-3.5c0.4-2.2,1.9-3.4,4-3.4c2.1,0.1,3.5,1.5,3.7,3.7c0.1,0.7,0.1,1.3,0.2,2
		c0.8,6.2,6.4,10.9,12.7,10.6c6.3-0.3,11.6-5.5,11.8-11.8c0.1-2.8,1.6-4.4,4-4.5c2.4,0,3.9,1.6,4,4.4c0.3,7.9,8.1,13.5,15.7,11.4
		c5.3-1.5,8.6-5.8,9.1-11.9c0.2-2.8,2.5-4.5,5.1-3.7c1.7,0.5,2.7,2,2.8,4.4c0.4,7.7,7.5,13.1,15,11.4
		C336.2,227.2,344.9,220.9,343.9,215.2z"/>
	<rect x="261.9" y="255.1" width="33.8" height="32.5"/>
	<path d="M182.3,311.1c-4.1,3.8-8.3,7.6-12.3,11.3c2.6,2.8,15.7,15.9,17.5,17.8c4.6-4.2,9.1-8.3,13.7-12.5
		C194.4,322.8,188,317.2,182.3,311.1z"/>
	<path d="M256,8.5C119.3,8.5,8.5,119.3,8.5,256S119.3,503.5,256,503.5S503.5,392.7,503.5,256S392.7,8.5,256,8.5z M408.1,238.5
		c-5.6,38.7-25.3,76-59.4,96.6c-36.7,22.2-82.2,23.4-121.3,7.2c-8-3.3-15.6-7.4-22.6-12.1c-4.7,5.2-9.4,10.2-14,15.4
		c-0.8,0.9-1,2.3-1.5,3.5c-1.3,3.2-1.9,7.1-4.1,9.5c-9.8,10.6-20,20.9-30.2,31.2c-3.2,3.3-4.7,4.8-7.7,2.7c-3.5-2.4-0.3-4,2.9-7.4
		c5.3-5.5,10.7-10.8,16-16.2c4.6-4.6,13.3-13.5,18-18.1c1.9-1.9-2.5-6.9-4.8-9c-3.8-3.5-7.4-7.2-10.9-10.9c-1.6-1.6-6.5-5.3-8.1-3.8
		c-17.1,17.2-42.5,42.5-59.6,59.7c-1.6,1.6,1.8,6.6,3.7,8.4c3.8,3.6,7.6,7.4,11.2,11.2c1.7,1.8,7.3,6.1,9,4.4
		c3.1-3.2,10.2-10.2,13.4-13.2c3.3-3.1,4.8-4.8,7.5-1.9c2.6,2.7-0.2,3.2-3.2,6.3c-3.3,3.3-6.5,6.7-9.9,9.9c-6.3,6-15.2,6-21.4-0.1
		c-4.1-4-8.2-8.1-12.2-12.2c-5.8-6-6-14.9-0.2-20.9c17.7-17.9,35.4-35.7,53.4-53.2c2.2-2.2,6.1-2.7,9.2-4c1.6-0.7,3.5-1.1,4.7-2.2
		c4.3-4,8.4-8.2,12.6-12.5c-8.7-10.2-15.8-21.7-21.1-34.3c-7.3-17.6-10.6-36.6-10.1-55.6c0.2-9.5,0.9-19.1,2.5-28.5
		c1.2-6.8,2.9-14.2,7.5-19.5c2.8-3.2,7.3,1.5,4.6,4.6c-4.5,5.1-5.5,13.6-6.4,20c-5.4,37.2,1.1,75.5,24.7,105.5
		c18.2,23.1,44,38.2,72.5,44.5c37.7,8.3,78.4,0.9,107.9-25.1c25.1-22.1,38.8-55.2,41.9-88.1c4.6-48-20.3-95-62.5-117.9
		c-28.7-15.6-63.2-18.8-94.5-9.8c-16.8,4.8-32.2,13.1-45.8,24c-6.5,5.1-12.6,10.7-18.3,16.8c-1.7,1.8-3.3,3.6-4.9,5.5
		c-0.3,0.3-2.5,3.1-1.4,1.7c-2.5,3.3-8.2,0-5.6-3.3c2.1-2.7,4.4-5.3,6.7-7.8c24.1-25.8,55.5-43.8,90.9-47.6
		c34-3.6,68.5,6.4,95.3,27.7C397.8,147.6,414.6,194.1,408.1,238.5z M339.6,270.9c0,10.7-6.7,18.8-17.2,20.7
		c-1.1,0.2-2.3,0.2-3.5,0.2c-27,0-54-0.1-80.9,0.1c-10.9,0.1-20.9-8.8-20.8-20.9c0.1-13.8,0-27.6,0.1-41.5c0-1.2-0.3-1.9-1.2-2.7
		c-4.5-4.1-7.1-9.1-6.7-15.2c0.2-3.4,1-6.8,1.6-10.2c1.4-8.4,2.9-16.7,4.2-25.1c1.5-9.8,9.6-17.1,19.5-17.2c14.6-0.1,29.3,0,43.9,0
		c14.6,0,29.2-0.1,43.8,0c10,0.1,18,7.4,19.6,17.3c1.8,11.3,3.9,22.7,5.6,34c0.7,4.4-0.7,8.6-3.2,12.3c-1,1.6-2.3,3-3.7,4.3
		c-0.7,0.7-1,1.4-1,2.4C339.6,243.1,339.6,257,339.6,270.9z M311.4,128.6c-21.6-7.7-45-7.1-66.5,0.9c-30.3,11.4-55,35.8-62.7,67.9
		c-6.9,28.9,2.5,61.1,20.4,84.5c0,0,0,0,0,0c0,0,0,0,0.1,0.1c1.5,1.9,3.1,3.7,4.7,5.4c4.6,5,9.6,9.6,15,13.7
		c9.1,6.8,19.3,12,30.3,15c20.7,5.8,43.3,4,63-4.6c38.4-16.7,62.2-57.3,61.2-98.8c-0.1-4.2,6.4-4.2,6.5,0c0.1,2.3-0.1,4.6-0.2,6.8
		c-1.6,24.4-9.3,48-24.7,67.2c-14.4,17.9-34.7,31-57.1,36.3c-40.4,9.6-83.4-7.1-106.9-41.5c-21-30.8-28.3-71-11.6-105.3
		c15.1-30.9,45.8-52.7,79.6-58.4c25.3-4.2,51.6,1.3,73,15.4c11,7.2,20.3,16.3,28.1,26.8c4.2,5.6,8.3,11.5,11.7,17.7
		c2.4,4.5,4.8,9.5,4.6,14.7c-0.1,4.2-6.6,4.2-6.5,0c0.1-5.1-2.9-10.2-5.4-14.5C355,156,336,137.3,311.4,128.6z"/>
</g>
</svg>
