<?xml version="1.0" encoding="utf-8"?>
<!-- Generator: Adobe Illustrator 26.0.1, SVG Export Plug-In . SVG Version: 6.00 Build 0)  -->
<svg version="1.1" id="Capa_1" xmlns="http://www.w3.org/2000/svg" xmlns:xlink="http://www.w3.org/1999/xlink" x="0px" y="0px"
	 viewBox="0 0 512 512" style="enable-background:new 0 0 512 512;" xml:space="preserve">
<g>
	<path d="M286.3,149.6c4.2,0,8.4,0,12.6,0c6.3,0,12.7,0,18.9,0.1c6.4,0.1,11.3-0.7,15.8-2.5l-27.3,0c-39.3,0-78.6,0-118,0
		c0,0-0.1,0-0.1,0c-4.9,0-8.9,0.5-12.6,1.5c-1.3,0.3-2.5,0.7-3.8,1l101.7,0C277.9,149.7,282.1,149.6,286.3,149.6z"/>
	<path d="M199.1,241.2l7.6,0c2.5,0,5.1,0,7.6,0c2.9,0,5.8,0,8.7,0l24.1,0.1c13.4,0.1,26.8,0.1,40.2,0.2c3.2,0,6.4-0.1,9.5-0.1
		c2.5-0.1,5-0.1,7.5-0.1c2.5,0,5.1,0,7.6,0c4.1,0,8.1,0,12.1-0.1c1.1,0,2.4-0.5,3.3-1.1c4.9-3.4,9.8-7,14.6-10.5l3.9-2.8
		c0.1-0.1,0.2-0.1,0.3-0.2c-54.2,0-108.4,0-162.5,0c-0.7,0-1.5,0.2-2.3,0.6c-5.9,2.7-11.7,5.5-17.6,8.2l-8.4,4
		c-1.4,0.7-2.8,1.3-4.2,2c1,0,2.1,0,3.1,0c10.9,0,21.9,0,32.8,0L199.1,241.2z"/>
	<path d="M323.9,251c-9.1-0.1-18.4-0.1-27.3,0c-4.5,0-9,0.1-13.5,0.1c-25.9,0-51.9,0-77.8,0c-2,0-4.1,0-6.1-0.1
		c-1.6,0-3.1-0.1-4.7-0.1c-2.3,0-4.7,0-7.1,0h-1.1v44.7h169.9v-64.2l-5.6,4.1c-5.6,4-11.2,8.1-16.7,12.3
		C330.8,250.1,327.7,251,323.9,251z"/>
	<polygon points="143.6,242.9 143.6,242.9 143.6,242.9 	"/>
	<path d="M356.4,149.4l-6.6,2.4c-5.8,2.1-11.5,4.2-17.3,6.2c-2.6,0.9-5.4,1.4-8,1.4c-9.9,0.1-19.8,0.1-29.7,0.1l-3.9,0
		c-4.7,0-9.3,0-14-0.1c-5.6,0-11.1-0.1-16.7-0.1c-3.4,0-6.8,0-10.2,0.1c-6.8,0.1-13.6,0.1-20.4,0c-3.7,0-7.5-0.1-11.1-0.1
		c-8.1,0-16.2,0.1-24.2,0.1l-7.4,0.1c0,0-0.1,0-0.2,0v56.8h169.8V149.4z"/>
	<path d="M218,333c3.4,0,6.8-0.1,10.3-0.1c3-0.1,6-0.1,9-0.1c9.2,0,18.3,0,27.5,0l20.9,0c12.8,0,25.7,0,38.5-0.1
		c0.6,0,1.6-0.4,2-0.8c7-7.5,13.9-15,20.7-22.6l3.3-3.6h-1.8c-54.6,0-109.1,0-163.7,0c-0.9,0-1.8,0.2-2.2,0.5
		c-9.9,6.9-19.8,13.9-29.7,20.9l-8,5.6l7.1,0c2.8,0,5.5,0,8.3,0c3.9,0,7.7,0,11.6,0c6.6,0,13.3,0.1,19.9,0.1
		C200.5,332.9,209.2,332.9,218,333z"/>
	<rect x="186.5" y="79.6" width="169.8" height="57.6"/>
	<rect x="134.3" y="420.5" width="188.4" height="7.8"/>
	<path d="M332.6,339.6c-1.9,2.1-4,3.1-6.9,3c-17.9-0.1-35.9-0.2-53.8-0.2c-5.9,0.1-11.8,0-17.7,0.1c-5.5,0-11.1,0.1-16.6,0.1
		c-4.1,0-8.2,0-12.2-0.1c-10.8-0.1-21.6-0.1-32.5,0l-6.2,0.1v20.7h169.7v-49.7l-5,5.4C345.1,325.9,338.8,332.7,332.6,339.6z"/>
	<path d="M256,9C119.3,9,8.5,119.8,8.5,256.5S119.3,504,256,504s247.5-110.8,247.5-247.5S392.7,9,256,9z M364.5,390.7
		c-5.3,7.3-10.6,14.7-15.9,22l-9.7,13.5c-2.4,3.4-4.9,6.8-7.6,10.2c-1.1,1.3-3.1,1.8-4.5,1.9c-5.3,0.1-10.6,0.1-15.9,0.1l-5.2,0
		l-107.1,0c-2.2,0-4.5,0-6.8,0c-4.1,0-8.1,0-12.2,0c-2.8,0-5.7,0-8.5-0.1c-3.6,0-7.1-0.1-10.8-0.1c-6.1,0-12.3,0.1-18.4,0.1
		l-11.2,0.1c-2,0-3.7-0.2-5-1.4c-1.3-1.3-1.5-3.1-1.5-4.9l0-4.5c0-3.5,0-7-0.1-10.4c-0.1-2.6,0.8-4.6,2.8-6.4
		c8.1-7.2,16.1-14.5,24.2-21.7c8.1-7.2,16.1-14.5,24.2-21.7c0.9-0.8,1.1-1.4,1.1-2.5c-0.1-5.2-0.1-10.4,0-15.6l0-6.5H168
		c-12.4,0-24.8,0-37.2,0l-0.6,0c-1.6,0-4.4,0.1-5.5-3c-1.3-3.9,1.9-6.2,3-6.9l14.7-10.3c11-7.8,22.1-15.6,33.1-23.3
		c0.9-0.6,1.1-1.1,1.1-2.2c-0.1-11.3,0-22.6,0-34v-11.9l-1.9,0c-2.8,0-5.5,0-8.2,0l-7.6,0.1c-3.1,0-6.2,0.1-9.3,0.1l-8,0
		c-3.8,0-7.5,0-11.3,0c0,0,0,0-0.1,0c-3.2,0-5.1-1.3-5.7-3.8c-0.6-2.6,0.6-4.6,3.5-6l21.3-10c8.9-4.2,17.9-8.4,26.8-12.6
		c0.5-0.2,0.6-0.3,0.6-0.3c0-15.7,0-31.1,0-46.5v-12.3h-8.8c-12.1,0-24.1,0-36.2,0c-1.4,0-2.8,0-4.1-0.6c-1.1-0.6-3-2.1-3.1-4
		c0-1.8,1.3-3.6,2.5-4.5c1-0.7,2.2-0.9,3.3-1.1c0.3-0.1,0.6-0.1,0.9-0.2l9.7-2.3c11.6-2.7,23.2-5.5,34.8-8.2
		c0.8-0.2,0.9-0.3,0.9-0.3c0,0,0.1-0.2,0.1-1c-0.1-11.3-0.1-22.6-0.1-33.9l0-10.7l0-4.7c0-4.2,0-8.4,0-12.6c0-4.4,2.8-5.3,5.1-5.4
		c5.3-0.1,10.6,0,16-0.1c0.9,0,1.8-0.1,2.6-0.1c1-0.1,2-0.1,3.1-0.1l85.1,0c5,0,10.1,0,15.1,0c3.3,0,6.6,0.1,9.8,0.1
		c3.8,0.1,7.6,0.1,11.4,0.1c2.9,0,5.8-0.1,8.6-0.1c2.4-0.1,4.7-0.1,7.1-0.1c6.9,0,13.7,0,20.6,0c3.4,0,5.4,2,5.4,5.4
		c0,19.6,0,39.2,0,58.8l0,205c0,15.3,0,30.5,0,45.8C366.4,387,365.8,388.9,364.5,390.7z"/>
	<path d="M351.8,373.3c-55.8,0-111.6,0-167.4,0c-0.5,0-1.2,0.3-1.6,0.7c-9.3,8.3-18.5,16.5-27.7,24.8l-12.9,11.6l40.3,0
		c47.2,0,94.5,0,141.7,0c0.9,0,1.2-0.2,1.7-0.9c4.6-6.5,9.3-13,14-19.4L351.8,373.3z"/>
	<path d="M333.5,415.5c-0.6,0.8-0.8,1.5-0.9,2.4c1.6-2.3,3.3-4.5,4.9-6.8c5.4-7.5,10.9-15.3,16.6-22.8c1-1.3,1.6-2.5,1.9-3.9
		l-4.4,6.2C345.6,398.9,339.6,407.2,333.5,415.5z"/>
</g>
</svg>
