<?xml version="1.0" encoding="utf-8"?>
<!-- Generator: Adobe Illustrator 26.0.1, SVG Export Plug-In . SVG Version: 6.00 Build 0)  -->
<svg version="1.1" id="Capa_1" xmlns="http://www.w3.org/2000/svg" xmlns:xlink="http://www.w3.org/1999/xlink" x="0px" y="0px"
	 viewBox="0 0 512 512" style="enable-background:new 0 0 512 512;" xml:space="preserve">
<g>
	<path d="M275.3,168.2c3.7,0,7.5,0,11.3,0c5.6,0,11.2,0,16.7,0.1c6.3,0.1,11.3-0.8,15.7-2.8c1.4-0.6,2.9-1.2,4.3-1.6
		c0.2-0.1,0.5-0.2,0.7-0.2l-30.3,0c-34.6,0-70.3,0-105.5,0c-4.5,0-8.2,0.4-11.6,1.4c-1.7,0.5-3.5,0.9-5.2,1.3
		c-0.9,0.2-1.8,0.4-2.8,0.6c-1.8,0.4-3.6,0.9-5.5,1.3l-0.3,0.1l101.1,0C267.8,168.3,271.5,168.2,275.3,168.2z"/>
	<rect x="185.2" y="103.5" width="153.5" height="53.7"/>
	<path d="M197.6,249.7l6.6,0c2.2,0,4.4,0,6.6,0c2.7,0,5.3,0,8,0c7.5,0,14.9,0.1,22.4,0.1c11.6,0.1,23.3,0.1,34.9,0.1
		c2.9,0,5.7-0.1,8.5-0.1c2.2,0,4.4-0.1,6.6-0.1c2.3,0,4.5,0,6.8,0c3.5,0,7.2,0,10.8-0.1c1.2,0,2.6-0.5,3.6-1.2
		c4.3-3,8.7-6.2,12.9-9.3l3.6-2.6c0.8-0.6,1.7-1.2,2.6-2l0.6-0.5c-0.1,0-0.2,0-0.3,0h-1.8c-48.7,0-97.5,0-146.2,0
		c-0.8,0-1.7,0.2-2.6,0.6c-5.2,2.4-10.4,4.9-15.6,7.3c-2.5,1.2-5,2.4-7.5,3.5c-2.3,1.1-4.5,2.1-6.8,3.2l-2.4,1.1c0.1,0,0.1,0,0.2,0
		c1.1,0,2.1-0.1,3.1-0.1c1.8-0.1,3.6-0.1,5.4-0.1c9.8,0,19.5,0,29.3,0L197.6,249.7z"/>
	<path d="M338.7,237.3L338.7,237.3c-0.5,0.3-0.9,0.6-1.2,0.9c-1.9,1.4-3.8,2.7-5.7,4.1c-4.9,3.6-10.1,7.2-15,11
		c-2.5,1.9-4.9,2.7-8.1,2.7c-8.1-0.1-16.3-0.1-24.2,0c-4,0-8.1,0.1-12.1,0.1c-23.1,0-46.1,0-69.2,0c-1.8,0-3.6,0-5.4-0.1
		c-1.4,0-2.8,0-4.1-0.1c-2.1,0-4.1,0-6.2,0l-2.3,0v42.3h153.6V237.3z"/>
	<path d="M331.3,167.8c-5,1.9-10.3,3.8-15.4,5.5c-2.2,0.8-4.6,1.2-6.8,1.2c-8.9,0.1-17.9,0.1-26.6,0.1l-3.4,0c-4.2,0-8.4,0-12.5-0.1
		c-4.9,0-9.8-0.1-14.8-0.1c-3,0-6.1,0-9,0.1c-2.9,0-5.8,0.1-8.6,0.1c0,0-0.1,0-0.1,0c-3.1,0-6.3,0-9.4-0.1c-3.3,0-6.6-0.1-9.9-0.1
		c-7,0-14.1,0.1-20.9,0.1l-7.2,0c-0.4,0-0.7,0-1.1,0.1l-0.2,0v53h153.5v-62.5c0,0,0,0-0.1,0c-0.4,0.1-0.7,0.2-1,0.3
		C335.6,166.2,333.5,167,331.3,167.8z"/>
	<path d="M338.4,372.1c-2.1,2.9-4.1,5.7-6.2,8.6c-5.2,7.3-10.6,14.8-16,22.1c-1.3,1.7-1.1,3.4-1,5.3c0,0.4,0.1,0.8,0.1,1.2
		c0.3-0.3,0.5-0.6,0.7-0.9c1.9-2.7,3.9-5.4,5.8-8.1c4.8-6.7,9.7-13.6,14.7-20.2c1.8-2.4,2.5-4.9,2.2-8.4
		C338.7,371.8,338.6,371.9,338.4,372.1z"/>
	<path d="M214.5,331.3c3.1,0,6.2-0.1,9.2-0.1c2.6,0,5.3-0.1,7.9-0.1c8.3,0,16.5,0,24.8,0l18.2,0c11.3,0,22.9,0,34.4-0.1
		c0.9,0,2.1-0.5,2.7-1.1c6.1-6.6,12.3-13.3,18.3-19.9l4.2-4.6c0.2-0.2,0.4-0.5,0.7-0.9c0,0,0,0,0,0h-18.9c-43.7,0-87.4,0-131.1,0
		c-1.1,0-2.1,0.2-2.7,0.6c-8.8,6.2-17.7,12.5-26.4,18.6l-9.9,7c-0.2,0.1-0.4,0.2-0.6,0.3l9.7,0c2.7,0,5.4,0,8.1,0
		c3.5,0,6.9,0,10.4,0c5.9,0,11.9,0.1,17.8,0.1C199,331.2,206.7,331.3,214.5,331.3z"/>
	<path d="M256,9C119.3,9,8.5,119.8,8.5,256.5S119.3,504,256,504s247.5-110.8,247.5-247.5S392.7,9,256,9z M343.8,380.7
		c-4.8,6.6-9.7,13.4-14.4,19.9c-2.6,3.6-5.1,7.1-7.7,10.7l-0.7,1c-2.2,3-4.4,6.1-6.7,9c-0.6,0.8-2,1.2-3.1,1.2
		c-4.7,0.1-9.5,0.1-14.1,0.1l-4.6,0l-95.5,0c-2.1,0-4.1,0-6.2,0c-3.5,0-6.9,0-10.4,0c-2.5,0-5.1,0-7.6-0.1c-3.1,0-6.4-0.1-9.6-0.1
		c-5.5,0-10.9,0-16.4,0.1c-3.3,0-6.6,0.1-10,0.1c-1.9,0-2.9-0.3-3.6-0.9c-0.7-0.7-0.9-1.7-0.9-3.5c0-1.3,0-2.7,0-4c0-3,0-6.2,0-9.3
		c0-1.9,0.6-3.4,2.1-4.7c7.2-6.4,14.4-12.9,21.6-19.4c7.2-6.4,14.3-12.8,21.5-19.2c1-0.9,1.4-1.8,1.4-3.2c-0.1-4.6,0-9.3,0-13.9
		c0-1.7,0-3.4,0-5.1v-1.9H168c-10.4,0-20.7,0-31.1,0c-0.2,0-0.4,0-0.6,0c-1.3,0-3,0.1-3.7-1.9c-0.8-2.3,0.8-3.7,2.2-4.7
		c4.5-3.1,8.9-6.3,13.4-9.4c9.7-6.8,19.4-13.7,29.1-20.5c1.1-0.8,1.5-1.6,1.5-3c0-10.3,0-20.8,0-30.9l0-11.2l-2.9,0
		c-2.5,0-4.9,0-7.4,0c-2.3,0-4.5,0-6.8,0.1c-2.7,0-5.5,0-8.2,0.1c-2.4,0-4.8,0-7.2,0c-3.3,0-6.6,0-10,0c-1.5,0-3.4-0.3-3.9-2.4
		c-0.5-2.2,1.1-3.3,2.4-3.9c6.3-2.9,12.5-5.9,18.8-8.8c8-3.8,16-7.5,24-11.3c0.9-0.4,1.2-0.7,1.2-1.7c0-13.3,0-26.7,0-40l0-12.4
		c0-0.2,0-0.4,0-0.6c0,0,0-0.1,0-0.2l-9.5,0c-10.6,0-21.2,0-31.7,0h-0.2c-1,0-2,0-2.8-0.4c-0.8-0.4-2-1.5-2.1-2.5
		c0-1.1,0.9-2.3,1.7-2.9c0.7-0.5,1.6-0.6,2.4-0.8c0.3-0.1,0.6-0.1,0.9-0.2l8.4-2c10.2-2.4,20.7-4.9,31.1-7.3
		c1.5-0.3,1.9-0.8,1.9-2.4c-0.1-9.9-0.1-20-0.1-29.8l0-9.9l0-5.5c0-3.3,0-6.6,0-9.9c0-2.4,1-3.5,3.3-3.5c2.9-0.1,5.9-0.1,8.7-0.1
		c1.8,0,3.6,0,5.5,0c0.8,0,1.6-0.1,2.4-0.1c0.9,0,1.8-0.1,2.7-0.1c16.8,0,33.7,0,50.5,0h18.7c2.3,0,4.5,0,6.8,0c4.4,0,8.7,0,13.1,0
		c2.9,0,5.8,0.1,8.7,0.1c3.3,0.1,6.8,0.1,10.2,0.1c2.6,0,5.2-0.1,7.7-0.1c2.1,0,4.2-0.1,6.3-0.1c6,0,12.2,0,18.3,0
		c2.4,0,3.6,1.2,3.6,3.6c0,17.8,0,35.6,0,53.4l0,27.6l0,142.8l0,10.5c0,13.7,0,27.4,0,41.1C345.3,377.9,344.8,379.3,343.8,380.7z"/>
	<path d="M315.5,335.1c-1.5,1.6-3,2.3-5.2,2.3c-14.5-0.1-30.1-0.2-47.9-0.2c-5.3,0-10.6,0-15.8,0.1c-4.7,0-9.5,0.1-14.2,0.1
		c-3.7,0-7.5,0-11.2-0.1c-3.7,0-7.4-0.1-11-0.1c-6,0-12,0.1-17.9,0.1l-6.2,0.1c-0.2,0-0.5,0-0.7,0.1c0,0,0,0,0,0v20.8h153.5v-48.6
		l-0.1,0.1c-0.5,0.5-0.9,0.9-1.3,1.4L332,317C326.6,323,321,329.1,315.5,335.1z"/>
	<rect x="138.7" y="406.7" width="170.1" height="9.4"/>
	<path d="M328.4,375.2c1.8-2.5,3.6-5,5.5-7.6l2-2.7c0,0,0,0-0.1,0c-0.4,0-0.7,0-0.9,0l-4.7,0c-47.7,0-97.1,0-145.6,0
		c-0.7,0-1.7,0.4-2.3,0.9c-8.5,7.6-17,15.2-25.4,22.8c-4,3.6-8,7.2-12,10.7c-0.4,0.3-0.8,0.6-1.2,0.8c0,0-0.1,0.1-0.1,0.1l0,0
		c0.1,0,0.2,0,0.3,0c0.4,0,0.7,0.1,1.1,0.1l32.8,0c43.7,0,87.4,0,131.1,0c0,0,0,0,0,0c1.2,0,1.9-0.3,2.5-1.3
		c4.2-5.9,8.5-11.8,12.6-17.6L328.4,375.2z"/>
</g>
</svg>
