<?xml version="1.0" encoding="utf-8"?>
<!-- Generator: Adobe Illustrator 26.0.1, SVG Export Plug-In . SVG Version: 6.00 Build 0)  -->
<svg version="1.1" id="Capa_1" xmlns="http://www.w3.org/2000/svg" xmlns:xlink="http://www.w3.org/1999/xlink" x="0px" y="0px"
	 viewBox="0 0 512 512" style="enable-background:new 0 0 512 512;" xml:space="preserve">
<g>
	<path d="M332.4,298.5v-143h-7c-43.2,0-100.3,0.2-143.5-0.1c-5.5,0-6.9,1.6-6.8,7c0.2,41.3,0.1,82.6,0.1,123.9c0,4.1,0,8.2,0,12.2
		c2.6,0,6.5,0,10.2,0h20c0-6.8,0-13.6,0-20.5c0-12.4,9.2-21.7,21.6-21.7c3,0,5.9,0,8.9,0c-9.3-6-15.4-16.3-15.4-28.1
		c0.1-18.4,15.1-33.3,33.5-33.3c18.2,0.1,33.3,15.2,33.2,33.4c-0.1,11.8-6.2,22.1-15.4,28c3,0,5.9,0,8.9,0
		c12.4,0,21.6,9.3,21.7,21.7c0,6.8,0,13.7,0,20.5h6.6c0,0,0,0.1,0,0.1H332.4z"/>
	<path d="M296.2,277.7c0-7.7-4.8-13.6-12-15.1c-1.2-0.3-2.5-0.3-3.8-0.3c-17.7,0-35.4,0-53.1,0c-8.1,0-14.2,4.9-15.6,12.5
		c-0.2,1.2-0.2,2.5-0.2,3.7c0,6.7,0,13.4,0,20.1h84.5c0,0,0-0.1,0-0.1h0.3C296.3,291.5,296.3,284.6,296.2,277.7z"/>
	<rect x="143.6" y="305.3" width="220.2" height="109.8"/>
	<rect x="143.6" y="103.8" width="220.2" height="45.3"/>
	<path d="M281.1,227.9c0-14.9-12.3-27.1-27.2-27c-15.1,0-27.3,12.1-27.3,27.1c0,15.3,12.1,27.5,27.4,27.4
		C269,255.4,281.2,243.1,281.1,227.9z"/>
	<path d="M256,8.5C119.3,8.5,8.5,119.3,8.5,256S119.3,503.5,256,503.5S503.5,392.7,503.5,256S392.7,8.5,256,8.5z M360.8,298.9
		c8.2,0,9.9,1.7,9.9,10.1c0,34.5,0,69,0,103.5c0,8.2-1.7,9.9-10,9.9c-71.1,0-142.2,0-213.3,0c-8.9,0-10.4-1.4-10.4-10.1
		c0-34.5,0-69,0-103.5c0-8.2,1.7-9.8,10.1-9.8c7.2,0,14.3,0,22,0V155.4c-7.7,0-15.2,0-22.8,0c-7.9,0-9.3-1.4-9.3-9.2
		c0-13.5-0.1-26.9,0-40.4c0-7.1,1.7-8.7,8.8-8.7c72,0,144.1,0,216.1,0c6.9,0,8.7,1.9,8.8,8.8c0,13.6,0,27.3,0,40.9
		c0,6.9-1.8,8.6-8.9,8.6c-7.5,0-15.1,0-23.2,0v143.4C346.2,298.8,353.5,298.8,360.8,298.9z"/>
</g>
</svg>
