<?xml version="1.0" encoding="utf-8"?>
<!-- Generator: Adobe Illustrator 26.0.1, SVG Export Plug-In . SVG Version: 6.00 Build 0)  -->
<svg version="1.1" id="Capa_1" xmlns="http://www.w3.org/2000/svg" xmlns:xlink="http://www.w3.org/1999/xlink" x="0px" y="0px"
	 viewBox="0 0 512 512" style="enable-background:new 0 0 512 512;" xml:space="preserve">
<g>
	<path d="M327.5,294.8c0-47.7,0-94.9,0-143c-2.9,0-4.9,0-7,0c-43.2,0-86.4,0.1-129.6-0.1c-5.5,0-6.9,1.6-6.8,7
		c0.2,41.3,0.1,82.6,0.1,123.9c0,4.1,0,8.2,0,12.2c5.5,0,10.2,0,13.3,0c2-11.6,2.3-23.1,6.1-33.2c4.2-11.1,15.2-15.2,27-16.4
		c-9.4-15.2-8.6-30.2,1.7-41.1c9.5-10,25.1-13.1,36.9-5.8c5.4,3.3,10.4,8.5,13.4,14c5.9,11,3.4,22.2-3.4,32.9c2,0.3,3.1,0.4,4.2,0.6
		c16.3,2.1,27.5,14.6,27.7,31.1c0.1,6,0,12,0,18C317.1,294.8,322.1,294.8,327.5,294.8z"/>
	<path d="M279.6,258.3c-6.4-0.1-12.9-0.1-19.3-0.1c-10.4,0.1-20.8,0-31.2,0.4c-7.8,0.3-14,4.5-15.6,11.8c-1.7,7.9-1.2,16.3-1.7,24.4
		c29.5,0,57.7,0,86.2,0c0-5.9-0.1-11.6,0-17.2C298.3,266.9,290.3,258.5,279.6,258.3z"/>
	<path d="M152.5,405.2c69.5,0,138.5,0,207.3,0c0-32.5,0-64.5,0-96.7c-69.3,0-138.1,0-207.3,0C152.5,341.2,152.5,373.3,152.5,405.2z"
		/>
	<path d="M272.8,225.3c0-10-7.9-18.1-17.8-18.2c-10.1-0.1-18.5,8.3-18.4,18.3c0.1,9.7,8.6,18,18.3,18
		C264.6,243.4,272.8,235.2,272.8,225.3z"/>
	<path d="M256,8.5C119.3,8.5,8.5,119.3,8.5,256S119.3,503.5,256,503.5S503.5,392.7,503.5,256S392.7,8.5,256,8.5z M363,295.2
		c8.2,0,9.9,1.7,9.9,10.1c0,34.5,0,69,0,103.5c0,8.2-1.7,9.9-10,9.9c-71.1,0-142.2,0-213.3,0c-8.9,0-10.4-1.4-10.4-10.1
		c0-34.5,0-69,0-103.5c0-8.2,1.7-9.8,10.1-9.8c7.2,0,14.3,0,22,0c0-48.2,0-95.4,0-143.5c-7.7,0-15.2,0-22.8,0
		c-7.9,0-9.3-1.4-9.3-9.2c0-13.5-0.1-26.9,0-40.4c0-7.1,1.7-8.7,8.8-8.7c72,0,144.1,0,216.1,0c6.9,0,8.7,1.9,8.8,8.8
		c0,13.6,0,27.3,0,40.9c0,6.9-1.8,8.6-8.9,8.6c-7.5,0-15.1,0-23.2,0c0,47.9,0,95.2,0,143.4C348.3,295.2,355.6,295.2,363,295.2z"/>
	<path d="M359.8,106.5c-69.6,0-138.5,0-207.4,0c0,11,0,21.5,0,32.2c69.3,0,138.2,0,207.4,0C359.8,127.8,359.8,117.3,359.8,106.5z"/>
</g>
</svg>
