<?xml version="1.0" encoding="utf-8"?>
<!-- Generator: Adobe Illustrator 26.0.1, SVG Export Plug-In . SVG Version: 6.00 Build 0)  -->
<svg version="1.1" id="Capa_1" xmlns="http://www.w3.org/2000/svg" xmlns:xlink="http://www.w3.org/1999/xlink" x="0px" y="0px"
	 viewBox="0 0 512 512" style="enable-background:new 0 0 512 512;" xml:space="preserve">
<style type="text/css">
	.st0{fill:#1E9AD5;}
</style>
<g>
	<g>
		<path class="st0" d="M403.3,302c0,63.1,0,126.1,0,189.2c0,10.6-2.7,13.3-13.1,13.3c-89.5,0-179,0-268.5,0
			c-10.1,0-12.8-2.8-12.8-13c0-126.5,0-253,0-379.5c0-9.7,2.6-12.4,12.2-12.4c90.1,0,180.2,0,270.3,0c9,0,12.1,3.1,12.1,12.1
			C403.3,175.1,403.3,238.5,403.3,302z M164.2,118.2c-0.1,1.1-0.2,1.4-0.2,1.8c0,95.1,0,190.2,0.1,285.2c0,2,1.1,4.4,2.6,5.9
			c11.7,11.9,23.4,23.7,35.4,35.4c1.6,1.5,4.3,2.6,6.4,2.7c31.6,0.2,63.3,0.2,94.9,0c2.3,0,5.2-1.2,6.9-2.9
			c11.4-11.1,22.5-22.5,33.9-33.6c2.8-2.7,4-5.5,4-9.5c-0.1-93-0.1-185.9-0.1-278.9c0-2,0-4,0-6.1
			C286.3,118.2,225.4,118.2,164.2,118.2z M127.4,485.7c86.1,0,171.6,0,257,0c0-122.8,0-245.2,0-367.4c-6.1,0-11.8,0-18,0
			c0,2.6,0,4.8,0,7.1c0,94.5,0,189,0.1,283.5c0,5.2-1.5,9.1-5.2,12.7c-13.8,13.5-27.5,27.2-41.1,41c-3.5,3.5-7.2,5.2-12.2,5.2
			c-34.7-0.2-69.4-0.2-104.1,0c-5,0-8.7-1.7-12.2-5.2c-13.3-13.5-26.7-27-40.3-40.2c-4.4-4.2-6-8.7-6-14.7
			c0.1-94.3,0.1-188.6,0.1-282.9c0-2.2,0-4.4,0-6.4c-6.6,0-12.3,0-18.2,0C127.4,240.8,127.4,363.1,127.4,485.7z"/>
	</g>
	<g>
		<path class="st0" d="M53.8,26.3c0,49,0,97.6,0,146.8c8.4,0,16.6,0,24.8,0c7.4,0,11.5,3.3,11.7,9c0.1,5.9-4.2,9.4-11.8,9.4
			c-10.7,0-21.5,0.1-32.2,0c-7.8-0.1-11.1-3.4-11.1-11.3c0-53.9,0-107.7,0-161.6c0-8,3-11.1,11.1-11.1c139.8,0,279.5,0,419.3,0
			c7.9,0,11.3,3.3,11.3,11.1c0,53.9,0,107.7,0,161.6c0,7.9-3.3,11.3-11.1,11.3c-10.9,0.1-21.9,0.1-32.8,0c-7.2,0-11.4-3.6-11.3-9.4
			c0.1-5.6,4.2-8.9,11.1-9c8.4-0.1,16.8,0,25.4,0c0-49.2,0-97.8,0-146.8C323.5,26.3,188.9,26.3,53.8,26.3z"/>
	</g>
	<g>
		<path class="st0" d="M229,53.5c14.4,0,28.8,0,43.1,0c7.6,0,11.4,3.1,11.5,9c0.1,6-3.8,9.3-11.2,9.3c-29.3,0-58.7,0-88,0
			c-7.4,0-11.3-3.4-11.2-9.3c0.1-5.9,3.9-9,11.5-9C199.4,53.5,214.2,53.5,229,53.5z"/>
	</g>
	<g>
		<path class="st0" d="M320.2,71.9c-3.3,0-6.5,0.2-9.8-0.1c-5.2-0.4-8.4-4.1-8.4-9.1c0-5,3.3-8.8,8.5-9c6.5-0.3,13-0.3,19.5,0
			c5.4,0.2,8.6,3.8,8.7,8.8c0.1,5.3-3.1,8.9-8.8,9.4C326.8,72.1,323.5,71.9,320.2,71.9z"/>
	</g>
	<g>
		<path class="st0" d="M81.1,62.7c-5,0-9.1-4.2-9.1-9.2c0-5,4.2-9.1,9.2-9.1c5,0,9.1,4.2,9.1,9.2C90.2,58.5,86,62.7,81.1,62.7z"/>
	</g>
	<g>
		<path class="st0" d="M440,53.6c0,5-4.2,9.1-9.2,9.1c-5,0-9.1-4.2-9.1-9.2c0-5,4.2-9.1,9.2-9.1C435.9,44.4,440.1,48.6,440,53.6z"/>
	</g>
	<g>
		<path class="st0" d="M209.7,265.2c-6,0-11.7,0.1-17.4,0c-6.1-0.1-9.7-3.5-9.8-8.9c-0.1-5.6,3.6-9.3,9.9-9.4c5.7-0.1,11.4,0,17.6,0
			c0-6.1-0.1-11.6,0-17.1c0.1-6.8,3.6-10.6,9.4-10.5c5.6,0.1,8.9,3.8,8.9,10.4c0.1,11.3,0,22.6,0,33.9c0,6.9,3.5,10.8,9.2,10.8
			c5.7,0,9.1-3.9,9.2-10.8c0.1-5.2,0-10.3,0-15.5c0.1-15.3,10.7-27.4,25-28.7c14.7-1.3,27.3,8.8,30,24.2c0.2,0.9,0.2,1.9,0.4,3.4
			c5.7,0,11.5-0.1,17.2,0c6.5,0.1,10.2,3.6,10.2,9.2c0,5.6-3.7,9-10.2,9.2c-2.9,0.1-5.7,0-8.6,0c-2.7,0-5.3,0-8.7,0
			c0,5.8,0.1,11.3,0,16.8c-0.1,7-3.3,10.8-9.1,10.8c-5.8,0-9.2-3.7-9.2-10.7c-0.1-11.1,0-22.2,0-33.3c0-7.2-3.6-11.3-9.5-11.1
			c-5.7,0.2-8.8,4.1-8.9,11.1c-0.1,5,0,10,0,14.9c-0.1,15.7-10.7,27.8-25.3,29.1c-14.7,1.2-27.1-9-29.8-24.5
			C210,267.3,209.9,266.4,209.7,265.2z"/>
	</g>
	<g>
		<path class="st0" d="M200.8,375.6c0,5.9,0.1,11.9,0,17.8c-0.1,6.1-3.6,9.7-9,9.8c-5.6,0.1-9.3-3.7-9.3-10
			c-0.1-11.7-0.1-23.4,0-35.1c0.1-6.5,3.6-10.1,9.3-10.1c5.6,0.1,8.9,3.7,9.1,10.3C200.9,364.1,200.8,369.9,200.8,375.6z"/>
	</g>
	<g>
		<path class="st0" d="M219.2,136.4c5,0,9.1,4.2,9.1,9.2c0,5-4.2,9.1-9.2,9.1c-5,0-9.1-4.2-9.1-9.2
			C210.1,140.5,214.2,136.4,219.2,136.4z"/>
	</g>
	<g>
		<path class="st0" d="M265.2,145.4c0.1,5-4,9.2-9,9.3c-5,0.1-9.2-4-9.3-9c-0.1-5,4-9.2,9-9.3C260.8,136.3,265.1,140.4,265.2,145.4z
			"/>
	</g>
	<g>
		<path class="st0" d="M302,145.5c0,5-4.2,9.2-9.1,9.2c-5,0-9.2-4.2-9.2-9.1c0-5,4.1-9.2,9.1-9.2C297.8,136.4,302,140.5,302,145.5z"
			/>
	</g>
	<g>
		<path class="st0" d="M191.3,311.3c5-0.2,9.3,3.9,9.4,8.9c0.2,5-3.9,9.3-8.9,9.5c-5,0.2-9.3-3.9-9.4-8.9
			C182.3,315.7,186.3,311.4,191.3,311.3z"/>
	</g>
</g>
</svg>
