<?xml version="1.0" encoding="utf-8"?>
<!-- Generator: Adobe Illustrator 26.0.1, SVG Export Plug-In . SVG Version: 6.00 Build 0)  -->
<svg version="1.1" id="Capa_1" xmlns="http://www.w3.org/2000/svg" xmlns:xlink="http://www.w3.org/1999/xlink" x="0px" y="0px"
	 viewBox="0 0 512 512" style="enable-background:new 0 0 512 512;" xml:space="preserve">
<style type="text/css">
	.st0{fill:#1E9AD5;}
</style>
<g>
	<g>
		<path class="st0" d="M48.9,442.4c-10.5,0-20.4,0-30.3,0c-7.8,0-10.5-2.7-10.5-10.6c0-63.9,0-127.9,0-191.8
			c0-7.6,2.7-10.4,10.2-10.4c145.6,0,291.2,0,436.8,0c7.3,0,10,2.7,10,10c0,10,0,20.1,0,30.8c9.2,0,18,0,26.7,0
			c10.2,0,12.2,2,12.2,12.3c0,63,0,125.9,0,188.9c0,9.2-2.4,11.7-11.5,11.7c-144.1,0-288.2,0-432.4,0c-8.8,0-11.2-2.4-11.2-11.4
			C48.9,462.3,48.9,452.7,48.9,442.4z M487.5,466.8c0-60.5,0-120.4,0-180.1c-141.1,0-281.7,0-422.4,0c0,60.2,0,120,0,180.1
			C206,466.8,346.6,466.8,487.5,466.8z M24.4,426.5c6.5,0,12.6-0.3,18.8,0.1c4.5,0.3,5.7-1.1,5.7-5.6c-0.2-45.9-0.1-91.7-0.1-137.6
			c0-1.9,0-3.9,0.2-5.8c0.4-4.1,2.8-6.5,6.8-7c2.1-0.3,4.2-0.2,6.3-0.2c126.7,0,253.4,0,380.1,0c2.2,0,4.4,0,6.6,0
			c0-8.6,0-16.5,0-24.4c-141.6,0-282.9,0-424.5,0C24.4,306,24.4,365.8,24.4,426.5z"/>
	</g>
	<g>
		<path class="st0" d="M248.1,56c-10.8,10.8-20.4,20.5-30.1,30.1c-1.3,1.3-2.5,2.6-4,3.6c-3.5,2.2-6.9,1.7-9.8-1.2
			c-2.9-2.9-3.1-6.4-1-9.8c0.7-1.2,1.9-2.3,2.9-3.3c14.1-14.2,28.3-28.3,42.4-42.5c5.6-5.6,9.3-5.6,14.9,0
			c14.2,14.1,28.3,28.3,42.5,42.4c0.3,0.3,0.7,0.7,1,1c3.8,4.1,4.1,8.8,0.9,12.1c-3.4,3.4-8,3.3-12.1-0.8c-9-8.9-18-17.9-26.9-26.9
			c-1.2-1.3-2.1-2.9-3.2-4.3c-0.6,0.3-1.2,0.5-1.7,0.8c0,1.6,0,3.3,0,4.9c0,41,0,82,0,123c0,1.6,0.1,3.3-0.1,4.9
			c-0.5,4.1-4.1,7.3-8,7c-4.2-0.4-7-2.6-7.6-6.9c-0.2-1.6-0.1-3.2-0.1-4.9c0-40.8,0-81.7,0-122.5C248.1,61,248.1,59.3,248.1,56z"/>
	</g>
	<g>
		<path class="st0" d="M284.4,351.8c0,5.6-0.2,11.3,0.2,16.9c0.1,1.3,2.2,2.8,3.7,3.5c8.4,4,15.4,9.3,16.8,19.3
			c1.6,11.4-4.6,21.9-16.1,26.7c-2.9,1.2-4.8,2.2-4.7,6c0.1,4.5-3.8,7.5-8.1,7.4c-4.1-0.2-7.5-3.1-7.4-7.5c0-3.5-1.6-4.6-4.4-5.8
			c-7.1-2.8-12.3-7.8-15.1-15c-1.9-5-0.5-9.4,3.5-11.3c4.4-2.1,8.6-0.2,11.1,4.8c0.9,1.8,2.2,3.4,3.3,5.2c0.5-0.1,0.9-0.2,1.4-0.3
			c0-5.9,0.2-11.7-0.2-17.6c-0.1-1.1-2.4-2.3-3.8-3c-7.6-3.6-14-8.5-16.2-17.1c-3-11.7,3.6-23.9,15.9-29c3.1-1.3,4.6-2.6,4.6-6.2
			c0-4.3,3.6-7.1,7.8-7.1c4.1,0,7.8,3,7.7,7.2c-0.1,3.8,1.7,4.8,4.6,6.1c7.4,3.1,12.8,8.3,15.2,16.1c1.4,4.4-0.4,8.4-4.3,10.1
			c-4,1.7-8,0.1-10.3-3.9c-1.2-2.1-2.4-4.1-3.6-6.1C285.3,351.5,284.8,351.7,284.4,351.8z M268.1,364.6c0-4.6,0-8.6,0-12.9
			C262.1,355.9,262,360.4,268.1,364.6z M284.6,389c0,4.5,0,8.6,0,12.9C290.8,397.6,290.8,392.8,284.6,389z"/>
	</g>
	<g>
		<path class="st0" d="M418.1,393.1c10.4,0,20.8-0.3,31.1,0.2c2.7,0.1,6.1,2.3,7.7,4.5c1.2,1.7,0.8,5.6-0.5,7.5
			c-1.3,1.9-4.5,3.6-6.8,3.6c-21.3,0.3-42.5,0.2-63.8,0.1c-5.1,0-8.6-3.6-8.6-8.1c0-4.5,3.5-7.8,8.7-7.9
			C396.6,393,407.3,393.1,418.1,393.1z"/>
	</g>
	<g>
		<path class="st0" d="M134.7,409.2c-10.2,0-20.5,0.1-30.7,0c-6.2-0.1-10-4-9-9.4c0.8-4.3,3.7-6.5,7.9-6.6c21.5-0.1,42.9-0.1,64.4,0
			c5,0,8.2,3.4,8.3,7.8c0,4.6-3.4,8-8.6,8.1C156.2,409.3,145.4,409.1,134.7,409.2z"/>
	</g>
	<g>
		<path class="st0" d="M418.1,360.4c-10.4,0-20.8,0-31.2,0c-6,0-9.7-3.1-9.7-7.9c-0.1-4.9,3.5-7.9,9.6-7.9c20.6,0,41.2,0,61.8,0
			c6,0,9.5,3.2,9.4,8.1c-0.1,4.9-3.7,7.8-9.8,7.8C438.2,360.5,428.1,360.4,418.1,360.4z"/>
	</g>
	<g>
		<path class="st0" d="M135,360.4c-10.2,0-20.5,0-30.7,0c-6.1,0-9.5-3-9.4-8.1c0.1-4.8,3.4-7.7,9.2-7.7c20.8,0,41.6-0.1,62.4,0
			c5.6,0,9.1,3.2,9,8c-0.1,4.7-3.6,7.8-9.3,7.8C155.8,360.5,145.4,360.4,135,360.4z"/>
	</g>
</g>
</svg>
