<?xml version="1.0" encoding="utf-8"?>
<!-- Generator: Adobe Illustrator 26.0.1, SVG Export Plug-In . SVG Version: 6.00 Build 0)  -->
<svg version="1.1" id="Capa_1" xmlns="http://www.w3.org/2000/svg" xmlns:xlink="http://www.w3.org/1999/xlink" x="0px" y="0px"
	 viewBox="0 0 512 512" style="enable-background:new 0 0 512 512;" xml:space="preserve">
<g>
	<path d="M130.2,257.2c-2.4,0.3-6.2,4.2-6.3,6.6c-0.6,13.2-0.5,26.4,0,39.6c0.1,2.2,3.6,5.7,5.8,6c7,0.8,14.2,0.3,21.8,0.3v-52.7
		C143.8,256.9,136.9,256.3,130.2,257.2z"/>
	<path d="M221.2,315.9c3.6,0.1,6.5-2.6,7.2-6.7c0.1-0.7,0.2-1.4,0.3-2.1c0.1-1.1,0.3-2.1,0.5-3.2c1.7-9.5,8-17.3,16.9-20.9
		c8.8-3.5,18.8-2.3,26.6,3.4c9.3,6.8,13.4,18.8,10.3,30c-3.1,11.1-13,19-25.3,20c-5,0.4-7.3,2-8.1,5.4c-0.4,1.8-0.5,3.7-0.6,5.7
		c0,0.3,0,0.6,0,0.9l0.1,0l0,3.5c0,1.2,0,2.4,0,3.6c0.2,8.2,4,9.2,6.9,9.4c2.2,0.1,4-0.5,5.2-1.6c1.5-1.5,2.3-4,2.3-7.5
		c0-4.9,2.8-6.3,5.8-7.3c21.8-7.6,33.4-28.9,27.6-50.6c-5.6-21.1-26.5-34.1-48.6-30.3c-18.7,3.2-34.2,21.6-33.9,40
		C214.4,312.3,217.1,315.7,221.2,315.9z"/>
	<path d="M359.4,191.7c-0.7-6.6-3.7-8-9.2-8c-62,0.2-124.1,0.1-186.1,0.1c-1.3,0-2.8-0.5-3.9,0.1c-1.7,0.9-4,2.2-4.6,3.8
		c-1.7,5.8-2.8,11.8-4.2,18.1h211.1C361.3,200.7,359.9,196.3,359.4,191.7z"/>
	<path d="M347.3,144c-7.9-29-34.6-45-58.2-33.1c-21.7,11-42.2,11.1-63.9,0c-21.9-11.2-47.2,1.7-56.4,27.7
		c-4.2,11.9-6.3,24.9-9.6,38.1h195.3C352.1,165.2,350.1,154.4,347.3,144z"/>
	<path d="M363.7,258.4c-0.3,0-0.5,0.4-1.2,0.9v49.2c28.5,3,28.5,3,28.5-24.8v-1C391.1,255.2,390.5,254.7,363.7,258.4z"/>
	<path d="M391.7,225c-8.6-5.1-20-9.6-27.7-9.5c-70.1,0.4-140.3,1.6-210.4-0.6c-19.4-0.6,0,0-75,33.7h353.1
		C432.8,248.6,431.9,248.6,391.7,225z"/>
	<path d="M352.2,317.5c0.1-18.3,0-36.6,0-55c0-1.8-0.2-3.7-0.4-5.8H160.4c-0.4,0.7-0.7,1.1-0.7,1.4c0.4,26.7-1.1,53.6,1.7,80.1
		c3.5,33.5,22.9,57,57.5,66.3c12.3,3.3,25.5,4.8,38.2,4.8C310.1,409.1,351.8,368.4,352.2,317.5z M247.6,263.8
		c24-4.2,46.8,10,52.9,33c6.3,23.7-6.3,46.8-30,55.1c-2.6,0.9-3.3,1.4-3.3,3.8c0,4.6-1.2,8-3.5,10.2c-1.8,1.8-4.3,2.7-7.3,2.7
		c-0.2,0-0.4,0-0.6,0c-3.8-0.2-10.3-2-10.6-13c0-1.2,0-2.4,0-3.6l-0.2,0l-0.1-2c0.1-0.9,0.1-1.8,0.2-2.7c0.1-2.1,0.2-4.3,0.7-6.4
		c1.5-6.7,6.9-8,11.4-8.3c10.7-0.9,19.3-7.7,22-17.2c2.7-9.7-0.9-20.1-8.9-25.9c-6.7-4.9-15.3-6-22.9-3c-7.6,3.1-13.1,9.8-14.6,18
		c-0.2,1-0.3,2-0.5,3c-0.1,0.7-0.2,1.5-0.3,2.2c-1,6.1-5.6,10.3-11.1,9.9c-6.1-0.3-10.4-5.2-10.5-12
		C210.2,287.4,227.2,267.4,247.6,263.8z M267.3,381.4c0,5.8-5.2,10.9-11.1,10.9c0,0,0,0,0,0c-5.9,0-11-5.1-11-11
		c0-2.8,1.1-5.5,3.2-7.5c2.1-2.1,5-3.3,7.9-3.3c0,0,0,0,0,0c3,0,5.8,1.2,7.9,3.3C266.3,375.9,267.4,378.6,267.3,381.4L267.3,381.4z"
		/>
	<path d="M503.5,256C503.5,119.3,392.7,8.5,256,8.5S8.5,119.3,8.5,256S119.3,503.5,256,503.5S503.5,392.7,503.5,256z M318.4,398.1
		c-10.6,7.6-22.2,13-34.6,16.3c-0.1-0.3-0.2-0.2-0.2,0.1c-9.1,2.4-18.7,3.6-28.7,3.6c-13.9,0-25.8-1.9-35.8-4.8l-8.6-2.9
		c-10.4-4-18.5-9-24.4-13.6c-18.3-14.5-28.6-35-32.5-60.2c-1-6.2-1.3-12.6-2-19.9c-4.2,0-8.4,0-12.7,0c-14.5-0.1-23.1-8.8-23.2-23.4
		c0-5.2-0.4-10.3,0.1-15.4c0.7-6.9,2.1-13.7,3.2-21.1c0,0-1.6-0.2-3.3-0.2c-11.7,0-23.4-0.1-35.1,0c-5.2,0-9.1-1.9-10.2-7.1
		c-1.1-5.3,1.7-8.6,6.4-10.7c20-9.1,39.9-18.4,60-27.2c4.3-1.9,6.2-4.6,7.3-8.9c5-19.5,10-39.1,15.3-58.5
		c9.7-35.4,45.3-52.9,79-38.5c12.4,5.3,24.2,5.4,36.7,0.2c34.8-14.5,69.6,2.7,79.6,39.1c5.2,19.1,10.2,38.2,15,57.3
		c1.1,4.6,3.1,7.3,7.6,9.3c19,8.4,37.8,17.2,56.7,25.8c1.6,0.7,3.2,1.5,4.8,2.3c4,2.2,5.6,5.7,4.6,10c-1,4.3-4,6.8-8.5,6.8
		c-11.7,0.1-23.4,0.1-35.1,0.1c-2.1,0-4.2,0-7,0c8.7,13.6,5.5,28,4.9,41.7c-0.5,11.1-9.8,18.2-21.1,18.5c-4.7,0.1-9.4,0-13.3,0
		c-2.6,11.1-4.2,21.7-7.5,31.7c-3.1,9.2-7.3,17.5-12.4,25C336.3,383,328,391.3,318.4,398.1z"/>
	<path d="M261.5,376.5c-1.4-1.4-3.3-2.2-5.2-2.2c0,0,0,0,0,0c-1.9,0-3.8,0.8-5.2,2.2c-1.3,1.3-2.1,3-2.1,4.8c0,3.8,3.5,7.2,7.3,7.2
		c0,0,0,0,0,0c3.8,0,7.3-3.4,7.3-7.2C263.6,379.6,262.9,377.9,261.5,376.5z"/>
</g>
</svg>
