<?xml version="1.0" encoding="utf-8"?>
<!-- Generator: Adobe Illustrator 26.0.1, SVG Export Plug-In . SVG Version: 6.00 Build 0)  -->
<svg version="1.1" id="Capa_1" xmlns="http://www.w3.org/2000/svg" xmlns:xlink="http://www.w3.org/1999/xlink" x="0px" y="0px"
	 viewBox="0 0 512 512" style="enable-background:new 0 0 512 512;" xml:space="preserve">
<g>
	<path d="M336.8,139.8c-7.1-21.8-31-33.8-52.1-24.8c-19.5,8.2-37.8,8.3-57.2,0c-19.6-8.4-42.3,1.3-50.5,20.8
		c-3.8,8.9-5.7,18.7-8.6,28.6h174.9C341,155.7,339.3,147.6,336.8,139.8z"/>
	<path d="M307,405.1C307,405.1,307,405.1,307,405.1C307,404.1,307,403.1,307,405.1z"/>
	<path d="M134.9,265.3c-1.5,0.2-4,2.4-4,3.8c-0.4,7.6-0.3,15.3,0,22.9c0.1,1.3,2.3,3.3,3.7,3.5c4.5,0.4,9.1,0.2,14,0.2v-30.5
		C143.6,265.1,139.2,264.8,134.9,265.3z"/>
	<path d="M350.1,189.7c-0.6-5.4-3.4-6.5-8.5-6.5c-57,0.2-113.9,0.1-170.9,0.1c-1.2,0-2.6-0.4-3.6,0.1c-1.6,0.7-3.7,1.8-4.2,3.2
		c-1.6,4.7-2.5,9.7-3.8,14.8h193.8C351.8,197.1,350.5,193.5,350.1,189.7z"/>
	<path d="M206,408.9C206.1,408.9,206.1,408.9,206,408.9C206.1,407.2,206.1,408,206,408.9z"/>
	<path d="M228.4,416.4C228.4,416.4,228.4,416.4,228.4,416.4C228.4,415.6,228.4,414.9,228.4,416.4z"/>
	<path d="M283.6,415.5C283.6,415.5,283.6,415.5,283.6,415.5C283.6,413.8,283.6,414.6,283.6,415.5z"/>
	<path d="M344.3,253.2H168.2c-0.3,0.7-0.7,1-0.7,1.4c0.4,25.6-1,51.4,1.6,76.7c3.2,32.1,21.1,54.6,52.9,63.6
		c11.3,3.2,23.4,4.6,35.2,4.6c48.7-0.2,87.1-39.2,87.4-88c0.1-17.6,0-35.1,0-52.7C344.6,257,344.4,255.2,344.3,253.2z M256,389.5
		c-4.9,0-9.3-4.4-9.3-9.2c0-5,4.3-9.1,9.4-9.1c5.1,0,9.4,4.1,9.3,9.1C265.3,385.2,260.9,389.5,256,389.5z M269.8,348.5
		c-2.9,1-4.6,2-4.6,5.7c0,7.8-3.6,11.4-9.6,11.2c-5.7-0.2-8.7-4.1-8.9-11.4c0-1.8,0-3.6,0-5.4c-0.1,0-0.2,0-0.2,0
		c0.3-3,0.2-6.1,0.9-9c1.2-5.1,5-6.6,9.9-7c11.9-1,21.2-8.6,24.1-19c3-10.7-0.9-22-9.8-28.5c-15.8-11.5-37.8-2.7-41.2,16.6
		c-0.3,1.8-0.5,3.6-0.8,5.4c-0.8,5.2-4.7,8.7-9.3,8.5c-5.2-0.2-8.8-4.5-8.9-10.3c-0.3-19.8,16.2-39.2,36.2-42.7
		c23.6-4.1,45.7,9.7,51.7,32.3C305.3,317.6,292.9,340.4,269.8,348.5z"/>
	<path d="M364.4,265.4c-0.2,0-0.3,0.2-0.8,0.5v29.3c17.7,1.8,17.7,1.8,17.7-14.8v-0.6C381.4,263.5,381.1,263.2,364.4,265.4z"/>
	<path d="M256,8.5C119.3,8.5,8.5,119.3,8.5,256S119.3,503.5,256,503.5S503.5,392.7,503.5,256S392.7,8.5,256,8.5z M437.4,252.7
		c-11.9,0.1-23.8,0.1-35.8,0.1c-2.1,0-4.3,0-7.2,0c8.9,13.9,5.6,28.5,5,42.5c-0.5,11.3-10,18.6-21.5,18.9c-4.8,0.1-9.6,0-13.5,0
		c-2.6,11.4-4.2,22.2-7.7,32.3c-8.8,25.9-25.8,45.3-49.8,58.5c0,1,0,2,0,0c-0.3,0.2-0.5,0.3-0.8,0.3l-22.6,10c0,1.7,0,0.8,0,0
		c-9.7,1-18.6,2.6-27.6,2.7c-9,0.2-18-1.1-27.6-1.8c0,0.8,0,1.5,0,0l-21.7-7.3c-0.2,0-0.3-0.1-0.6-0.2c0,1.7,0,0.9,0,0
		c-33-13.9-50-39.9-55.4-74.4c-1-6.3-1.3-12.8-2.1-20.2c-4.2,0-8.6,0-12.9,0c-14.8-0.1-23.6-9-23.7-23.9c0-5.3-0.4-10.5,0.1-15.7
		c0.7-7,2.1-14,3.3-21.5c0,0-1.7-0.2-3.3-0.2c-11.9,0-23.8-0.1-35.8,0c-5.3,0-9.2-1.9-10.4-7.3c-1.1-5.4,1.8-8.8,6.5-10.9
		c20.4-9.3,40.6-18.7,61.1-27.8c4.4-1.9,6.3-4.7,7.4-9.1c5-19.9,10.2-39.8,15.6-59.6c9.9-36.1,46.2-53.9,80.5-39.3
		c12.7,5.4,24.6,5.5,37.4,0.2c35.5-14.8,70.9,2.7,81.1,39.9c5.3,19.4,10.4,38.9,15.3,58.4c1.2,4.7,3.2,7.5,7.8,9.5
		c19.4,8.5,38.5,17.5,57.7,26.3c1.6,0.8,3.3,1.5,4.9,2.4c4.1,2.2,5.7,5.8,4.7,10.1C445,250.1,442,252.7,437.4,252.7z"/>
	<path d="M353,219.7c-62.6,0.2-125.2,0.7-187.8-0.3c-17.3-0.3-30.6,7.7-44.8,14.7h271.6c-6.4-4-13.2-6.8-19.8-10.2
		C366,220.8,359.8,219.7,353,219.7z"/>
</g>
</svg>
