<?xml version="1.0" encoding="utf-8"?>
<!-- Generator: Adobe Illustrator 26.0.1, SVG Export Plug-In . SVG Version: 6.00 Build 0)  -->
<svg version="1.1" id="Capa_1" xmlns="http://www.w3.org/2000/svg" xmlns:xlink="http://www.w3.org/1999/xlink" x="0px" y="0px"
	 viewBox="0 0 512 512" style="enable-background:new 0 0 512 512;" xml:space="preserve">
<g>
	<path d="M326.9,238c-0.3,15.9-0.3,32.5,0,50.6c0.1,6.2,4.3,10.4,10.7,10.5c6.3,0.1,12.8,0.1,19.1,0.1c2.8,0,5.5,0,8.3,0l3,0.1
		c1.7,0,3.5,0,5.2,0c6.1,0,12.4,0.1,18.6-0.1c7-0.1,11.4-4.6,11.4-11.6c0-11.8,0-23.8,0-35.4l0-10.4c0-10.6-3.5-14.2-13.8-14.3
		c-14.8-0.2-30.6-0.1-51.2,0C331.4,227.4,327,231.5,326.9,238z"/>
	<path d="M294.2,227.8c-6.9-1.1-13.8-0.9-21.1-0.6c-2.3,0.1-4.6,0.2-6.9,0.2c-0.1,0-0.6,0.3-1,0.7c-10.6,10.5-22.9,12.4-36.6,5.8
		c-0.7-0.3-1.1-0.4-1.3-0.5c-0.1,0.2-0.4,0.6-0.8,1.6c-0.6,1.5-0.9,3-0.9,4.7c0,4.7,0,9.5,0,14.2c0,10.8,0,21.9,0,32.9
		c0.1,7.7,4.4,12.1,12.3,12.2c6,0.1,12.2,0.1,18.1,0.1c1.7,0,3.4,0,5.1,0v0h3c2.7,0,5.4,0,8.2,0c6.1,0,12.4,0.1,18.6-0.1
		c7.1-0.1,11.6-4.6,11.6-11.6c0.2-15.4,0.2-31.4,0-48.8C302.5,233.1,299,228.6,294.2,227.8z"/>
	<path d="M274.8,150.5c4.2,0.7,8.1,3,11.7,6.9c10.3,11.2,10.8,25.7,1.5,38.9c-0.5,0.6-1,1.2-1.5,1.7c-0.2,0.2-0.5,0.6-0.8,0.9
		c0.4,0,1-0.1,1.4-0.1c0.7-0.1,1.5-0.2,2.2-0.2c10.5,0.1,21.1,0.1,31.4,0.1c5,0,10.1,0,15.1,0c0,0,0,0,0.1,0c9.6,0,14-4,14.2-12.9
		c0.4-15.6,0.4-31.4-0.1-46.9c-0.2-8.4-4.9-12.7-13.7-12.7c-0.1,0-0.1,0-0.2,0c-5.7,0-11.4,0-17,0c-2.5,0-5,0-7.5,0l-3,0
		c-0.8,0-1.6,0-2.4,0c-3.9,0.1-8,0.1-12.1-0.1c-1.5-0.1-2.8-0.1-4.1-0.1c-6.7,0-11,1.1-13.4,3.5c-2.9,2.9-3.9,8.3-3.5,18
		C273.2,150.2,273.6,150.3,274.8,150.5z"/>
	<path d="M169.8,162.3c0.1,0,0.2,0,0.3,0c18.2,0,31.5-13.3,32.4-32.5c0.2-17-14.4-32.2-31.4-32.5c-0.2,0-0.4,0-0.6,0
		c-9,0-17.7,3.5-23.9,9.8c-6,6-9.3,13.8-9.2,22.1C137.6,148.8,150.6,162.1,169.8,162.3z"/>
	<path d="M409.3,320.8c-2.1-1.1-4.3-1.2-7.2-1.2c0,0,0,0-0.1,0c-13.1,0-26.2,0-39.3,0c-17.7,0-35.4,0-53.2,0
		c-26.4,0-52.8,0.1-79.2,0.1l-14.4,0c-4.5,0-7,0-8.8-1.8c-1.8-1.8-1.8-4.2-1.8-8.6c0-10.2,0-20.3,0-30.4l0-12.5l0-13
		c0-11.2,0-22.7,0-34.1c0-2.4,0-5.9,2.6-7.6c2.4-1.6,5.3-0.5,7.6,0.5c6.4,2.9,13.4,5.3,20.1,7.5l0.6,0.2c9.2,3.1,14,1.5,19.7-6.5
		c7.9-11.1,14-19.7,19.7-28c4.1-5.9,3.8-11.9-0.7-17c-4.6-5.1-10.7-5.9-16.7-2.3c-3.1,1.9-5.1,5-7.3,8.4c-0.8,1.3-1.7,2.7-2.6,4
		c-9.7,13.4-11.2,13.8-26.5,7.5c-15.2-6.2-27.4-8.6-39.6-7.8c-7.1,0.5-14.2,0.4-21.2,0.3c-3.7-0.1-7.5-0.1-11.2-0.1
		c-11.4,0.1-21.1,7.4-24.6,18.5c-3.4,10.7-6.9,21.5-10.3,31.9c-3.5,10.8-7.1,21.9-10.6,32.9c-0.6,2-1.4,4-2.1,5.9
		c-2,5.6-4,10.8-3.7,16.5c0.3,6.5,4.7,11.4,10.9,12.1c6.8,0.8,12.7-3,14.5-9.3c0.6-2.3,1.5-5.1,4.8-8.7l5.1-5.4l0,11.4
		c0,2.3,0,4.3,0,6.2l0,24.8c0,22.9-0.1,45.9-0.1,68.8c0,1.2,0,2.3,0,3.5c-0.1,4.6-0.1,8.9,0.7,13.3c0.9,4.8,5.8,9.4,10.8,10.1
		c4,0.5,8-0.7,10.8-3.2c3.1-2.8,4.7-6.9,4.6-12.1c-0.2-17.2-0.1-34.7-0.1-51.7c0-11.6,0.1-23.6,0-35.4c0-3.1,0.2-6.1,2.3-8.2
		c1.5-1.5,3.8-2.3,6.9-2.3c0,0,0,0,0,0c2,0,5,0.2,7.1,2.3c2.2,2.2,2.3,5.3,2.3,8c-0.1,25.6-0.1,51.7,0,76.9l0,9.5
		c0,3.7,0,7.1,1.8,9.9c3,4.8,9.9,7.5,15.4,6c5.2-1.4,9-6.5,9-12.2c0.2-16.8,0.1-33.8,0-48.9l0-0.2c0-6.2,0-9.3,2.2-11.5
		c2.2-2.2,5.4-2.2,11.2-2.2h0.2c59.5,0,121.3,0,183.7,0c2.4,0,4.2-0.2,5.6-0.6c3.2-0.9,5-3.1,5.3-6.5
		C413.8,325,412.5,322.5,409.3,320.8z"/>
	<path d="M256,8.5C119.3,8.5,8.5,119.3,8.5,256S119.3,503.5,256,503.5S503.5,392.7,503.5,256S392.7,8.5,256,8.5z M389.4,221.3
		c13.6,0.1,19.7,6.4,19.7,20.3l0,10.4c0,11.6,0,23.6,0,35.5c0,10.3-7,17.4-17.2,17.6c-3.5,0.1-7,0.1-10.6,0.1c-2.7,0-5.5,0-8.2,0
		c-2.7,0-5.4,0-8.2,0l-3,0c-1.8,0-3.5,0-5.3,0c-6.3,0-12.8,0.1-19.2-0.1c-9.6-0.2-16.4-6.9-16.6-16.4c-0.3-18.2-0.3-34.8,0-50.8
		c0.2-9.6,7.2-16.4,17.2-16.5C358.7,221.1,374.5,221.1,389.4,221.3z M272.4,125.2c4.2-4.2,11-5.8,22.1-5.1c3.8,0.2,7.8,0.2,11.6,0.1
		c1.8,0,3.7-0.1,5.5-0.1l3,0.1c1.5,0,3,0,4.5,0c5.5,0,11.3,0,16.9,0c0.1,0,0.2,0,0.2,0c12,0,19.4,6.9,19.7,18.5
		c0.4,15.6,0.5,31.5,0.1,47.3c-0.3,12.2-7.3,18.7-20.2,18.7c0,0,0,0-0.1,0c-5,0-10.1,0-15.1,0c-10.3,0-20.9,0-31.4-0.1
		c-0.4,0-0.9,0.1-1.5,0.1c-0.6,0.1-1.4,0.2-2.2,0.2c-1.9,0-4.2-0.5-5.5-2.9c-2.1-3.7,0.7-6.7,2.1-8.1c0.4-0.4,0.7-0.8,1-1.1
		c7.8-10.9,7.4-22.3-1-31.4c-2.7-3-5.4-4.6-8.3-5.1c-6.4-1.1-6.6-6.5-6.7-8.6C266.7,139.2,267.1,130.5,272.4,125.2z M308.5,287.6
		c-0.1,10.3-7.1,17.4-17.5,17.5c-6.3,0.1-12.6,0.1-18.7,0.1c-1.9,0-3.7,0-5.6,0l-2.5,0c-2.7,0-5.3,0-8,0c-2.6,0-5.3,0-8,0
		c-3.4,0-6.9,0-10.3-0.1c-11.1-0.2-18.1-7.1-18.2-18.1c-0.1-11-0.1-22.1,0-32.9c0-4.7,0-9.5,0-14.2c0-2.4,0.4-4.7,1.3-6.9
		c0.8-2,1.9-4.1,4.1-5c1.7-0.7,3.7-0.5,6.1,0.7c11.3,5.5,21.1,3.9,29.8-4.7c0.6-0.6,2.6-2.4,5.1-2.5c2.3,0,4.5-0.1,6.8-0.2
		c7.3-0.3,14.8-0.5,22.3,0.7c7.7,1.2,13.3,8.3,13.4,16.7C308.7,256.1,308.7,272.1,308.5,287.6z M142.3,102.8
		c7.6-7.5,18.1-11.7,28.9-11.5c20.2,0.4,37.6,18.4,37.3,38.6l0,0.1c-1.1,22.5-16.9,38.2-38.4,38.2c-0.1,0-0.2,0-0.3,0
		c-22.4-0.2-38.2-16.2-38.4-39C131.2,119.3,135.1,109.9,142.3,102.8z M419.4,329.3c-0.5,5.8-4,10.1-9.6,11.7c-2,0.6-4.3,0.9-7.3,0.9
		c-62.4,0-124.2,0-183.7,0h-0.2c-3.1,0-6.3,0-6.9,0.4c-0.4,0.6-0.4,4-0.4,7.2l0,0.2c0.1,15,0.1,32.1,0,48.9
		c-0.1,8.5-5.6,15.8-13.5,17.9c-1.5,0.4-3,0.6-4.6,0.6c-6.8,0-13.8-3.6-17.4-9.2c-2.7-4.2-2.7-8.9-2.7-13l0-9.7
		c-0.1-25.2-0.1-51.3,0-76.9c0-2.1-0.2-3.4-0.6-3.8c-0.1-0.1-0.7-0.6-2.8-0.6c0,0,0,0,0,0c-2,0-2.5,0.4-2.6,0.5
		c-0.6,0.6-0.5,3-0.5,4c0,11.8,0,23.8,0,35.4c0,16.9-0.1,34.4,0.1,51.6c0.1,8.7-3.5,13.8-6.6,16.6c-4.1,3.7-9.8,5.4-15.6,4.7
		c-7.6-0.9-14.6-7.5-15.9-14.9c-0.9-4.9-0.8-9.7-0.8-14.4c0-1.1,0-2.3,0-3.4c0-22.9,0-45.9,0.1-68.8l0-22.6
		c-3.7,6.6-11.2,10.5-19.3,9.5c-9-1.1-15.7-8.4-16.1-17.7c-0.3-6.9,1.9-13,4-18.8c0.7-1.9,1.4-3.8,2-5.6c3.5-11,7.1-22.2,10.6-33
		c3.4-10.4,6.9-21.2,10.3-31.9c4.3-13.7,16.2-22.6,30.2-22.7c3.8,0,7.6,0,11.3,0.1c6.8,0.1,13.8,0.2,20.7-0.2
		c13.2-0.9,26.2,1.6,42.2,8.2c6,2.4,9.6,3.9,11.5,3.4c1.9-0.5,4.2-3.7,8-8.9c0.8-1.2,1.6-2.4,2.4-3.7c2.4-3.8,4.9-7.7,9.2-10.3
		c8.4-5.1,17.7-3.8,24.2,3.4c6.4,7.1,6.9,16.2,1.2,24.4c-5.7,8.2-11.8,16.9-19.7,28c-7.3,10.2-14.7,12.6-26.4,8.7l-0.6-0.2
		c-6.8-2.3-13.9-4.7-20.6-7.8c-0.8-0.4-1.3-0.6-1.7-0.6c-0.1,0.5-0.1,1.2-0.1,2.3c0.1,11.4,0,22.9,0,34.1l0,13l0,12.5
		c0,10.1,0,20.3,0,30.4c0,1.7,0,3.5,0.1,4.3c0.8,0.1,2.7,0.1,4.5,0.1l14.4,0c26.4-0.1,52.8-0.1,79.2-0.1c17.7,0,35.5,0,53.2,0
		c13.1,0,26.2,0,39.2,0c2.9,0,6.5,0,10.1,1.9C417.4,318.4,420,323.1,419.4,329.3z"/>
</g>
</svg>
