<?xml version="1.0" encoding="utf-8"?>
<!-- Generator: Adobe Illustrator 26.0.1, SVG Export Plug-In . SVG Version: 6.00 Build 0)  -->
<svg version="1.1" id="Capa_1" xmlns="http://www.w3.org/2000/svg" xmlns:xlink="http://www.w3.org/1999/xlink" x="0px" y="0px"
	 viewBox="0 0 512 512" style="enable-background:new 0 0 512 512;" xml:space="preserve">
<g>
	<path d="M207.5,156.7c13.5,0.5,25.3-10.7,25.6-24.2c0.3-13.1-10.8-24.7-24-25.2c-13.4-0.5-25.2,10.8-25.5,24.3
		C183.1,144.8,194.1,156.2,207.5,156.7z"/>
	<path d="M310.8,129.3c0.8,5.7,1.5,10,2.2,15.2C319.2,138,318.8,134.6,310.8,129.3z"/>
	<path d="M256,8.5C119.3,8.5,8.5,119.3,8.5,256S119.3,503.5,256,503.5S503.5,392.7,503.5,256S392.7,8.5,256,8.5z M208.4,96.6
		c19.7,0.1,35.6,16.2,35.4,35.8c-0.2,19.2-16.2,35.1-35.4,35.2c-19.6,0.1-35.8-16-35.7-35.6C172.7,112.4,188.8,96.5,208.4,96.6z
		 M271.4,180.7c-1.1,1.7-2,3.6-3.3,5.1c-15.9,18.6-20,39.7-19,64.1c1.7,43.4,0.1,86.8-0.1,130.3c0,4.5-0.3,9,0.1,13.5
		c0.8,8.4-1.6,15.3-9.3,19.3c-8,4.2-15.7,2.7-22.7-2.9c-0.8-0.7-1.6-1.4-2.1-1.9c-3.6,2.1-6.7,4.6-10.1,5.8
		c-14,5-25.8-4.1-25.8-18.9c0-29.3-0.4-58.5-0.6-87.8c0-1.6-0.2-3.1-0.4-5.2c-2.3,0.3-4.4,0.7-6.5,1c-12.3,1.3-22.1-7.4-22.2-19.7
		c-0.2-20.5-0.1-40.9-0.2-61.4c-0.1-23.4,12.7-40.5,35.5-47c3.6-1,7.5-1.4,11.3-1.5c8.5-0.2,17.2-0.6,25.6,0.1
		c7.6,0.7,12.5-1.7,15.4-8.6c0.7-1.6,1.7-3.6,3.1-4.3c2-1,5.4-2,6.5-1.1c1.6,1.3,2.8,5.1,2,6.7c-2.7,5.4-5.9,10.6-9.7,15.3
		c-1.3,1.7-4.7,2.4-7.2,2.4c-11.7,0.2-23.4-0.2-35.1,0.2c-15.5,0.5-26.6,8.7-34.4,21.5c-1.6,2.7-2,6.5-2,9.7
		c-0.1,21.8,0.1,43.6,0.2,65.4c0.1,7.7,3.3,11.7,9,11.6c6-0.1,8.9-4.7,8.8-12.4c-0.2-19.6-0.1-39.2,0.4-58.7
		c0.1-2.2,3.4-4.3,5.2-6.4c1.7,2.1,4.9,4.2,5,6.4c0.4,16.8,0.2,33.7,0.3,50.5c0.3,41.6,0.6,83.2,1,124.8c0,5.4,3.3,7.7,8.2,7.7
		c4.9,0,7-2.5,7.1-7.7c0.7-27.2,1.6-54.4,2.5-81.7c0.1-4.3,0.4-8.5,0.6-12.8c0.2-4,0.6-8.7,5.7-7.8c2.2,0.4,5,5,5.1,7.8
		c1.4,29,2.2,58,3.3,87c0.1,2.5,0.2,4.9,0.3,7.4c0.1,5.5,3.7,7.7,8.4,7.5c5-0.2,7.3-3.4,7.3-8.7c0-41.9,0.2-83.7,0.2-125.6
		c0-17.6-0.2-35.1,0.1-52.7c0-3.4,1-7.2,2.8-10c6.6-11,13.7-21.7,20.6-32.5c2.2-3.5,4.9-6.6,9.2-3.7
		C275.2,173.9,273.6,177.5,271.4,180.7z M318.1,157.8c2.8,2.3,6.5,5.1,3.6,8.7c-1.5,2-5.9,2.8-8.8,2.5c-17.9-1.9-35.7-4.1-53.5-6.7
		c-2.5-0.4-6.2-3.7-6.4-5.9c-0.4-4.2,3.5-5,7.3-4.6c14.5,1.7,28.9,3.4,43.4,5.1c-1.5-12.4-3-24.4-4.6-37.1
		c-12.4,4.8-24.9,9.7-37.4,14.5c-1.9,0.7-3.9,2.2-5.7,1.9c-2.3-0.4-5.5-1.9-6-3.6c-0.5-1.7,1.3-5.4,3.1-6.3
		c6.2-3.1,12.8-5.3,19.3-7.8c10.7-4.2,21.3-8.5,32.1-12.3c3-1,6.7-0.2,10-0.2c-0.6,3.2-1.2,6.4-1.9,9.6c-0.1,0.6-0.3,1.3-0.5,1.9
		c20.3,12.3,21.9,24.7,4.7,38.2C317.3,156.3,317.5,157.3,318.1,157.8z M327.6,115.6c4.1-6.1,8.8-11.8,13.4-17.6
		c0.5-0.6,1.6-0.6,2.2-0.8c4.6-0.2,7.6,4.1,5.1,7.8c-3.7,5.6-7.9,10.9-12.5,15.8c-1.1,1.2-4.8,1.2-6.6,0.3
		C328.1,120.6,326.9,116.7,327.6,115.6z M348.4,166.8c-5.3-3.3-10.2-7.3-14.8-11.5c-1.4-1.3-1.7-4.5-1.3-6.5
		c0.3-1.4,2.8-2.2,4.5-3.5c2.5,1.6,4.6,2.8,6.6,4.2c3.8,2.8,7.8,5.4,10.9,8.9c1.5,1.6,0.9,5.1,1.3,7.7
		C353.1,166.4,350,167.8,348.4,166.8z M355.9,137c-4.9,0.4-9.8,1.7-14.6,1.4c-2.4-0.1-4.7-2.7-7-4.2c1.8-2.1,3.3-5.3,5.6-6
		c4.9-1.4,10.1-1.5,17.7-2.4c1.1,1,4.7,2.7,5.2,5.1C363.8,135.6,359.8,136.7,355.9,137z"/>
</g>
</svg>
