<?xml version="1.0" encoding="utf-8"?>
<!-- Generator: Adobe Illustrator 26.0.1, SVG Export Plug-In . SVG Version: 6.00 Build 0)  -->
<svg version="1.1" id="Capa_1" xmlns="http://www.w3.org/2000/svg" xmlns:xlink="http://www.w3.org/1999/xlink" x="0px" y="0px"
	 viewBox="0 0 512 512" style="enable-background:new 0 0 512 512;" xml:space="preserve">
<style type="text/css">
	.st0{fill:#1E9AD5;}
</style>
<g>
	<g>
		<path class="st0" d="M465.4,7.8c14.8,3.3,25.6,11.7,30.4,26.2c2,6,2.9,12.6,2.9,19c0.2,136.7,0.2,273.4,0.1,410.1
			c0,25-16.4,41.1-41.4,41.2c-66.4,0-132.8,0-199.2,0c-25.1,0-41.6-16.4-41.6-41.5c-0.1-28.3-0.1-56.6,0.1-84.8
			c0-4.1-1.1-5.3-5.3-5.8c-19.2-2.2-37-8.6-53.4-18.9c-2-1.3-4.7-2.1-7.1-2.1c-17.6-0.2-35.2-0.1-52.8-0.1c-6.2,0-10.1-3.2-10.8-8.3
			c-0.8-6.4,3.4-11,10.3-11.1c9.7-0.1,19.4,0,29.1,0c1.6,0,3.1,0,5.7,0c-17-19.5-27.4-41.2-31.5-65.9c-14.5,0-28.7,0-42.9,0
			c-5.9,0-9.7-3.1-10.5-8c-1-6.4,3.2-11.3,10-11.3c12-0.1,23.9,0,35.9,0c1.8,0,3.5,0,4.9,0c2-11.5,3-23,6-33.8
			c3-10.9,8.1-21.2,12.3-32.1c-1.4,0-3.1,0-4.8,0c-28.6,0-57.2,0-85.8,0c-1.6,0-3.3,0.1-4.8-0.2c-4.9-0.9-8.2-5.1-7.9-10.1
			c0.2-4.7,3.7-8.5,8.5-9.1c1.9-0.2,3.9-0.1,5.8-0.1c33.4,0,66.9,0,100.3,0.1c3.1,0,5.3-0.9,7.6-3.1c21.3-21.6,47-34.2,77.2-37.5
			c3.8-0.4,3.9-2.2,3.9-5.1c-0.1-21.5,0-43,0-64.5c0-22.9,9.9-36,32-42.4c0.3-0.1,0.5-0.4,0.7-0.6C321.2,7.8,393.3,7.8,465.4,7.8z
			 M235.9,75.9c0,2.1,0,3.8,0,5.5c0,10.7,0.2,21.3-0.1,32c-0.1,4.6,0.6,7.3,6.1,7c3.1-0.1,6.4,0.7,9.5,1.6c5.6,1.6,11,1.2,16.6,0
			c13.7-3.1,27.6-3.5,41.4-1.5c67.9,9.6,115.2,68.8,109.6,136.9c-6.2,74.6-77.4,128.2-150.6,113.1c-5.9-1.2-11.6-1.7-17.5-0.1
			c-3.7,1-7.6,1.4-11.5,1.8c-2.3,0.2-3.5,0.8-3.5,3.4c0.1,13.1,0.1,26.2,0.1,39.3c0,0.6,0.4,1.1,0.6,1.5c81,0,161.7,0,242.4,0
			c0-113.7,0-227,0-340.5C398,75.9,317.4,75.9,235.9,75.9z M294.5,139.1c2.2,1.6,3.5,2.5,4.7,3.5c6.5,5.6,13.2,10.9,19.3,16.8
			c5.4,5.2,5.5,11.1,1,15.3c-4.4,4.1-9.8,3.5-14.9-1.7c-0.5-0.5-0.9-0.9-1.3-1.4c-26.5-26.1-58.2-37.1-95.1-31.1
			c-55.7,9.1-93.8,59.3-89,116.4c4.6,54,52.3,97.1,107.3,96.8c58.1-0.2,105.1-46.2,107-104.8c0.2-7.4,4.1-11.7,10.2-11.5
			c6,0.2,9.5,4.5,9.2,11.8c-1.6,41.3-19.1,74.4-52,99.4c-1.9,1.4-3.8,2.7-6.3,4.5c47.8,0.7,103-38.1,105.4-103.1
			C402.4,186.9,351.4,139.9,294.5,139.1z M478.9,436.6c-80.9,0-161.7,0-242.4,0c-0.2,0.6-0.4,0.9-0.4,1.2
			c-0.1,8.4-0.1,16.8-0.1,25.2c0.1,14.1,7.9,21.8,22,21.8c48.1,0,96.3,0,144.4,0c19.1,0,38.1,0.1,57.2,0c9.6,0,18.4-6.4,19.1-15.2
			C479.6,458.7,478.9,447.7,478.9,436.6z M478.8,56c3-18-6-28.8-23.6-28.8c-65.6,0-131.2,0.2-196.8-0.2c-13.8-0.1-26.1,9.3-21.7,29
			C317.4,56,398.1,56,478.8,56z"/>
	</g>
	<g>
		<path class="st0" d="M226.2,333.9c-48.5,0-87.7-39.3-87.6-87.9c0.1-48.2,39.4-87.4,87.7-87.3c48.4,0,87.8,39.5,87.7,88
			C313.8,294.8,274.5,333.9,226.2,333.9z M226.5,178.1c-37.6-0.1-68.4,30.2-68.5,67.7c-0.2,37.9,30.2,68.5,68,68.7
			c37.6,0.1,68.3-30.2,68.6-67.7C294.8,209.1,264.2,178.2,226.5,178.1z"/>
	</g>
	<g>
		<path class="st0" d="M335.3,213.8c-5.3,0-9.5-4.3-9.6-9.6c0-5.5,4.4-9.7,10-9.6c5.3,0.1,9.5,4.5,9.3,9.7
			C344.9,209.6,340.6,213.8,335.3,213.8z"/>
	</g>
	<g>
		<path class="st0" d="M357.8,470.5c-5.4,0-9.6-4-9.7-9.3c-0.1-5.4,4.4-9.9,9.8-9.8c5.2,0.1,9.5,4.5,9.5,9.7
			C367.3,466.3,363.1,470.5,357.8,470.5z"/>
	</g>
	<g>
		<path class="st0" d="M238.2,229.8c-3.4-1.4-6.9-2.9-10.4-3.5c-1.7-0.3-3.8,1.4-5.7,2.3c1.2,1.4,2.2,3.3,3.8,4.1
			c3.1,1.7,6.5,2.8,9.8,4.1c9.4,3.7,15.4,10.2,16.2,20.4c0.8,10.5-3.7,18.6-12.6,24.5c-1.7,1.2-3.1,3.2-4,5.2
			c-1.8,4.1-4.4,6.8-8.9,7c-4.5,0.2-7.5-2.1-9.5-6.1c-0.9-1.7-2.7-3.2-4.4-4.3c-2.3-1.5-5-2.3-7.2-3.9c-4.7-3.1-6-8.6-3.3-13.1
			c2.7-4.5,7.9-5.7,13.1-3.6c3.5,1.4,7.2,2.3,11,2.8c3.6,0.4,5.7-2.1,6.4-5.4c0.8-3.6-1.9-4.6-4.6-5.7c-4.9-2.1-9.9-3.9-14.5-6.6
			c-14.3-8.3-14.6-28.1-1-37.5c1.8-1.2,3.3-3.2,4.2-5.2c1.8-3.8,4.3-6.4,8.7-6.6c4.5-0.3,7.5,1.9,9.7,5.9c1,1.8,2.9,3.5,4.8,4.4
			c4.4,2.2,9.6,3.4,11.6,8.7"/>
	</g>
</g>
</svg>
