<?xml version="1.0" encoding="utf-8"?>
<!-- Generator: Adobe Illustrator 26.0.1, SVG Export Plug-In . SVG Version: 6.00 Build 0)  -->
<svg version="1.1" id="Capa_1" xmlns="http://www.w3.org/2000/svg" xmlns:xlink="http://www.w3.org/1999/xlink" x="0px" y="0px"
	 viewBox="0 0 512 512" style="enable-background:new 0 0 512 512;" xml:space="preserve">
<style type="text/css">
	.st0{fill:#1E9AD5;}
</style>
<g>
	<g>
		<path class="st0" d="M8.9,311c2.4-1.4,4.6-3.6,7.2-4c4.2-0.7,7.2,2.8,7.3,7.6c0.1,8.2,0,16.4,0,24.9c155,0,309.8,0,465.2,0
			c0-1.7,0-3.4,0-5.1c0-68.2,0-136.4,0-204.6c0-11.2-4.2-15.4-15.5-15.4c-91.8,0-183.7,0-275.5,0c-2.1,0-4.2,0.1-6.3-0.2
			c-3.7-0.5-5.8-2.7-6.1-6.4c-0.3-3.9,1.6-6.5,5.4-7.5c1.5-0.4,3.2-0.4,4.8-0.4c93,0,185.9,0,278.9,0c17.8,0,28.8,11,28.8,29
			c0,84.8,0,169.5,0,254.3c0,17.8-11,28.8-29,28.8c-145.4,0-290.8,0-436.2,0c-15.1,0-22.5-5.6-29-21.9C8.9,363.8,8.9,337.4,8.9,311z
			 M488.5,354.7c-155.3,0-310.1,0-465.1,0c0,9.2,0,18,0,26.8c0,12.1,4,16,16.3,16c144.2,0,288.5,0,432.7,0c1.9,0,3.9,0,5.8-0.3
			c5.9-0.9,10.2-5.1,10.3-11C488.7,375.9,488.5,365.5,488.5,354.7z"/>
	</g>
	<g>
		<path class="st0" d="M8.9,121.9c0.3-0.7,0.7-1.4,0.9-2.2c3.9-12.3,13.3-19.6,26.1-19.6c40.5-0.1,81-0.1,121.5,0c5.8,0,9,2.6,9.1,7
			c0.1,4.7-3.1,7.4-9.2,7.4c-39.2,0-78.5,0-117.7,0c-12.5,0-16.3,3.9-16.3,16.4c0,49.4,0,98.7,0,148.1c0,6.9-4.3,10.9-9.7,8.8
			c-1.8-0.7-3.2-2.5-4.8-3.7C8.9,230,8.9,175.9,8.9,121.9z"/>
	</g>
	<g>
		<path class="st0" d="M375.9,152.6c-16.4,0-32.8,0.1-49.2-0.1c-4.3-0.1-6.2,1.1-5.9,5.7c0.3,4.5,0.3,9,0,13.5
			c-0.4,4.8,1.2,6.5,6.2,6.4c14.6-0.3,29.3-0.3,43.9,0.1c2.8,0.1,6.5,1.5,8.2,3.6c3.3,4,0.1,10.4-5.3,10.5
			c-17.7,0.2-35.4,0.3-53.1-0.2c-7.7-0.2-13.7-7.5-14.2-15.9c-0.4-7.2-0.4-14.5,0-21.7c0.5-9.8,7.4-16.4,17.3-16.4
			c35.1-0.1,70.1-0.1,105.2,0c9.9,0,16.9,7.1,17.1,17.1c0.1,6.8,0.2,13.5,0,20.3c-0.2,9.7-7.2,16.6-16.9,16.8
			c-7.4,0.2-14.8,0.1-22.2,0c-5.1-0.1-8-2.6-8.2-6.9c-0.2-4.5,2.9-7.4,8.1-7.5c6.8-0.1,13.5-0.1,20.3,0c3.4,0.1,4.6-1.3,4.5-4.6
			c-0.2-5.3-0.2-10.6,0-15.9c0.2-3.8-1.3-5-5.1-5C409.7,152.7,392.8,152.6,375.9,152.6z"/>
	</g>
	<g>
		<path class="st0" d="M96.8,205c-9.8,0-19.6,0.1-29.4,0c-8.8-0.1-13.4-4.6-13.5-13.4c-0.1-13.3-0.1-26.7,0-40
			c0.1-8.8,4.6-13.3,13.5-13.4c19.8-0.1,39.6-0.1,59.3,0c8.4,0,13.2,4.8,13.3,13.1c0.1,13.5,0.1,27,0,40.5
			c-0.1,8.4-4.9,13.1-13.3,13.1C116.8,205,106.8,205,96.8,205z M68.7,190.1c19.1,0,37.9,0,56.6,0c0-2.8,0-5.1,0-7.6
			c-5.7-0.6-13.4,1.1-13.6-7.3c-0.2-9.2,8.1-6.9,13.6-7.7c0-5.1,0-9.9,0-14.6c-7.1,0-13.7,0-20.7,0c-0.1,1.8-0.2,3.3-0.2,4.9
			c0,1.8,0.1,3.6-0.1,5.3c-0.5,4.4-3.7,7.3-7.7,7c-3.8-0.3-6.5-3.2-6.6-7.5c-0.1-3.2,0-6.3,0-9.6c-7.4,0-14.2,0-21,0
			c0,5,0,9.7,0,14.6c5.6,0.7,13-1.3,13.3,7c0.3,9.4-8,7-13.5,8.2C68.7,185.3,68.7,187.6,68.7,190.1z"/>
	</g>
	<g>
		<path class="st0" d="M123.7,307c20.6,0,41.1,0,61.7,0c6.8,0,11,5.8,7.4,10.6c-1.6,2.1-5.3,3.7-8.1,3.7
			c-23.4,0.3-46.9,0.2-70.3,0.2c-17,0-34,0-51.1,0c-3.6,0-6.8-0.7-8.5-4.2c-2.5-5,1.1-10.2,7.4-10.3c11.4-0.1,22.8,0,34.2,0
			C105.4,307,114.6,307,123.7,307z"/>
	</g>
	<g>
		<path class="st0" d="M75,281.7c4.3,0,8.7-0.1,13,0c4.5,0.2,7.6,3.1,7.6,7c0.1,3.9-2.9,7.2-7.4,7.3c-9,0.2-18,0.2-26.9,0
			c-4.7-0.1-7.3-3.1-7.3-7.3c0.1-4.2,2.7-6.7,7.5-7c0.3,0,0.6,0,1,0C66.7,281.7,70.8,281.7,75,281.7z"/>
	</g>
	<g>
		<path class="st0" d="M230.1,307.1c2.4,0,4.8-0.1,7.2,0c4.2,0.3,7.1,3.1,7.1,7c0,4.2-2.4,6.9-6.3,7.2c-5.4,0.4-10.9,0.4-16.4,0
			c-4.1-0.3-6.7-3.7-6.3-7.7c0.4-4.1,2.9-6.3,7-6.5C224.9,307,227.5,307.1,230.1,307.1z"/>
	</g>
	<g>
		<path class="st0" d="M275.6,252.3c0,2.4,0.2,4.8-0.1,7.2c-0.5,4.1-3,6.3-7.2,6.2c-3.9-0.1-6.5-2.2-6.8-6.1
			c-0.4-4.8-0.4-9.6,0-14.4c0.3-4.1,3.2-6.4,7.1-6.3c3.8,0.1,6.4,2.2,6.8,6.1C275.8,247.5,275.6,250,275.6,252.3
			C275.6,252.3,275.6,252.3,275.6,252.3z"/>
	</g>
	<g>
		<path class="st0" d="M122.8,252.5c0,2.1,0.1,4.2,0,6.3c-0.3,4.2-3.1,7-7,7c-3.9,0.1-7.1-2.6-7.3-6.8c-0.3-4.5-0.3-9,0-13.5
			c0.3-4,3.8-7,7.5-6.6c4,0.4,6.5,2.7,6.8,6.8C123,248,122.8,250.3,122.8,252.5z"/>
	</g>
	<g>
		<path class="st0" d="M221.2,252.7c0,2.1,0.1,4.2,0,6.2c-0.4,4.2-3.2,6.9-7.2,6.9c-3.9,0-7-2.7-7.2-6.9c-0.2-4.3-0.2-8.7,0-13
			c0.2-4.1,3.4-7,7.1-7c3.8,0,6.9,2.9,7.2,7C221.4,248.2,221.2,250.4,221.2,252.7z"/>
	</g>
	<g>
		<path class="st0" d="M248.4,252.4c0,2.2,0.1,4.5,0,6.7c-0.3,3.9-2.4,6.2-6.3,6.6c-4.1,0.4-7.2-1.6-7.7-5.6
			c-0.6-5-0.6-10.3-0.1-15.3c0.4-3.7,3.3-6,7.1-5.8c4,0.2,6.6,2.4,6.9,6.6C248.5,247.9,248.4,250.1,248.4,252.4z"/>
	</g>
	<g>
		<path class="st0" d="M179.6,252.2c0-2.1-0.1-4.2,0-6.2c0.2-4.2,2.7-6.6,6.6-6.9c3.8-0.3,6.9,1.7,7.3,5.5c0.5,5.2,0.6,10.6,0,15.8
			c-0.4,3.8-3.4,5.7-7.3,5.4c-3.9-0.3-6.2-2.5-6.5-6.4C179.5,257,179.7,254.6,179.6,252.2C179.6,252.2,179.6,252.2,179.6,252.2z"/>
	</g>
	<g>
		<path class="st0" d="M387.1,252.2c0-2.2-0.1-4.5,0-6.7c0.3-4,2.8-6.2,6.5-6.5c3.8-0.3,6.9,1.6,7.3,5.5c0.5,5.2,0.5,10.6,0,15.8
			c-0.4,3.8-3.4,5.7-7.3,5.5c-3.9-0.2-6.2-2.4-6.6-6.3C386.9,257.1,387.1,254.6,387.1,252.2z"/>
	</g>
	<g>
		<path class="st0" d="M68.2,252.8c0,2.2,0.2,4.5-0.1,6.7c-0.6,4-3,6.3-7.2,6.3c-4.1-0.1-6.7-2.4-6.9-6.5c-0.3-4.6-0.2-9.3,0-13.9
			c0.2-4,2.9-6.1,6.6-6.3c3.8-0.2,6.5,1.8,7.2,5.6c0.5,2.7,0.4,5.4,0.5,8.1C68.4,252.8,68.3,252.8,68.2,252.8z"/>
	</g>
	<g>
		<path class="st0" d="M95.6,252.4c0,2.2,0.2,4.5,0,6.7c-0.4,4.2-3.4,6.8-7.4,6.7c-4-0.1-6.8-2.8-6.9-7.1c-0.2-4.3-0.2-8.7,0-13
			c0.2-4.2,2.8-6.5,6.8-6.7c4-0.2,6.7,2.2,7.4,6.1C95.9,247.5,95.5,249.9,95.6,252.4C95.6,252.4,95.6,252.4,95.6,252.4z"/>
	</g>
	<g>
		<path class="st0" d="M150,252.5c0,2.4,0.2,4.8-0.1,7.2c-0.4,3.6-2.7,5.8-6.3,6.1c-3.9,0.3-7-1.5-7.4-5.3c-0.6-5.4-0.5-10.9,0-16.2
			c0.4-3.6,3.5-5.4,7-5.2c3.7,0.2,6.3,2.3,6.7,6.3C150.2,247.7,150,250.1,150,252.5z"/>
	</g>
	<g>
		<path class="st0" d="M305.2,252.1c0-2.1-0.1-4.2,0-6.3c0.3-4.2,2.7-6.6,6.7-6.9c4-0.3,7,2,7.4,6c0.5,4.9,0.5,10,0,14.9
			c-0.4,3.9-3.4,6.2-7.5,5.9c-4.1-0.3-6.3-2.8-6.6-6.9C305,256.6,305.2,254.4,305.2,252.1z"/>
	</g>
	<g>
		<path class="st0" d="M346.8,252.6c0,2.1,0.1,4.2,0,6.2c-0.3,4.1-2.5,6.5-6.6,6.9c-3.9,0.3-7.3-2.3-7.6-6.4
			c-0.3-4.6-0.4-9.3,0-13.9c0.3-4,3.1-6.3,7.1-6.5c3.8-0.2,6.8,2.8,7.1,6.9C346.9,248.1,346.8,250.4,346.8,252.6z"/>
	</g>
	<g>
		<path class="st0" d="M373.9,252.7c0,2.2,0.2,4.5,0,6.7c-0.4,3.9-2.6,6.1-6.5,6.4c-3.9,0.3-6.9-1.6-7.3-5.4
			c-0.5-5.2-0.5-10.6,0-15.8c0.4-3.8,3.5-5.8,7.3-5.5c3.7,0.3,6.3,2.5,6.6,6.4C374.1,247.8,373.9,250.3,373.9,252.7z"/>
	</g>
</g>
</svg>
