<?xml version="1.0" encoding="utf-8"?>
<!-- Generator: Adobe Illustrator 26.0.1, SVG Export Plug-In . SVG Version: 6.00 Build 0)  -->
<svg version="1.1" id="Capa_1" xmlns="http://www.w3.org/2000/svg" xmlns:xlink="http://www.w3.org/1999/xlink" x="0px" y="0px"
	 viewBox="0 0 512 512" style="enable-background:new 0 0 512 512;" xml:space="preserve">
<style type="text/css">
	.st0{fill-rule:evenodd;clip-rule:evenodd;fill:#1E9AD5;}
	.st1{fill-rule:evenodd;clip-rule:evenodd;fill:#FFFFFF;}
</style>
<g id="CIRCLE">
	<g>
		<ellipse class="st0" cx="256" cy="256.5" rx="247.5" ry="247.5"/>
	</g>
</g>
<g id="ICON_WALLET_2_">
	<g>
		<path class="st1" d="M335.4,206.3H196.3c-7.6,0-13.7-6.1-13.7-13.6s6.1-13.6,13.7-13.6h96.9c6.9,0,12.5-5.6,12.5-12.5
			c0-6.9-5.6-12.5-12.5-12.5H180.3c-12.6,0-22.8,10.2-22.8,22.7v152.1c0,12.5,10.2,22.7,22.8,22.7h155c12.6,0,22.8-10.2,22.8-22.7
			V229C358.2,216.5,347.9,206.3,335.4,206.3z M312.6,294.9c-8.8,0-16-7.1-16-15.9s7.1-15.9,16-15.9s16,7.1,16,15.9
			S321.4,294.9,312.6,294.9z"/>
	</g>
</g>
</svg>
