<?xml version="1.0" encoding="utf-8"?>

<!-- Generator: Adobe Illustrator 26.0.1, SVG Export Plug-In . SVG Version: 6.00 Build 0)  -->
<svg version="1.1" id="Capa_1" xmlns="http://www.w3.org/2000/svg" xmlns:xlink="http://www.w3.org/1999/xlink" x="0px" y="0px"
	 viewBox="0 0 512 512"  xml:space="preserve">

<g>
	<ellipse class="st0" cx="312.6" cy="279" rx="16" ry="15.9"/>
	<path class="st0" d="M256,9C119.3,9,8.5,119.8,8.5,256.5S119.3,504,256,504s247.5-110.8,247.5-247.5S392.7,9,256,9z M358.1,328.9
		c0,12.5-10.2,22.7-22.8,22.7h-155c-12.6,0-22.8-10.2-22.8-22.7V176.8c0-12.5,10.2-22.7,22.8-22.7h112.9c6.9,0,12.5,5.6,12.5,12.5
		c0,6.9-5.6,12.5-12.5,12.5h-96.9c-7.6,0-13.7,6.1-13.7,13.6s6.1,13.6,13.7,13.6h139.1c12.5,0,22.8,10.2,22.7,22.7V328.9z"/>
</g>
</svg>
